<svg width="60" height="60" viewBox="0 0 60 60" fill="none" xmlns="http://www.w3.org/2000/svg">
<rect width="60" height="60" rx="12" fill="#00BFFC"/>
<path d="M29.0469 38.8984C29.3633 39.3906 30.1016 39.3906 30.418 38.8984C35.5508 31.5156 36.5 30.7422 36.5 28C36.5 24.2734 33.4766 21.25 29.75 21.25C25.9883 21.25 23 24.2734 23 28C23 30.7422 23.9141 31.5156 29.0469 38.8984ZM29.75 30.8125C28.168 30.8125 26.9375 29.582 26.9375 28C26.9375 26.4531 28.168 25.1875 29.75 25.1875C31.2969 25.1875 32.5625 26.4531 32.5625 28C32.5625 29.582 31.2969 30.8125 29.75 30.8125Z" fill="white"/>
</svg>

