<svg width="60" height="60" viewBox="0 0 60 60" fill="none" xmlns="http://www.w3.org/2000/svg">
<rect width="60" height="60" rx="12" fill="#FFCF50"/>
<path d="M35.3713 26.6675L35.3714 26.6675L35.3748 26.6641L36.8391 25.1776L39.0533 22.9634C39.5013 22.5433 39.5013 21.8434 39.0533 21.4233L38.5747 20.9447C38.1546 20.4967 37.4546 20.4967 37.0346 20.9447L34.8203 23.1589L33.3339 24.6232L33.3339 24.6232L33.3304 24.6266L31.1158 26.8634C30.6686 27.2836 30.6688 27.983 31.1166 28.4028L31.5951 28.8814C32.015 29.3291 32.7144 29.3294 33.1345 28.8822L35.3713 26.6675Z" fill="white" stroke="white" stroke-width="0.782609"/>
<path d="M25.9807 26.6675L25.9807 26.6675L25.9842 26.6641L27.4485 25.1776L29.6626 22.9634C30.1106 22.5433 30.1106 21.8434 29.6626 21.4233L29.1841 20.9447C28.764 20.4967 28.064 20.4967 27.6439 20.9447L25.4297 23.1589L23.9433 24.6232L23.9433 24.6232L23.9398 24.6266L21.7252 26.8634C21.2779 27.2836 21.2782 27.983 21.726 28.4028L22.2045 28.8814C22.6244 29.3291 23.3238 29.3294 23.7439 28.8822L25.9807 26.6675Z" fill="white" stroke="white" stroke-width="0.782609"/>
<path d="M25.1995 36.8413L25.1995 36.8414L25.2029 36.8379L26.6672 35.3514L28.8814 33.1372C29.3294 32.7172 29.3294 32.0172 28.8814 31.5971L28.4028 31.1185C27.9827 30.6705 27.2828 30.6705 26.8627 31.1185L24.6485 33.3327L23.162 34.797L23.162 34.797L23.1586 34.8005L20.9439 37.0373C20.4967 37.4574 20.497 38.1568 20.9447 38.5766L21.4233 39.0552C21.8431 39.503 22.5425 39.5032 22.9627 39.056L25.1995 36.8413Z" fill="white" stroke="white" stroke-width="0.782609"/>
<path d="M35.3713 36.8413L35.3714 36.8414L35.3748 36.8379L36.8391 35.3514L39.0533 33.1372C39.5013 32.7172 39.5013 32.0172 39.0533 31.5971L38.5747 31.1185C38.1546 30.6705 37.4546 30.6705 37.0346 31.1185L34.8203 33.3327L33.3339 34.797L33.3339 34.797L33.3304 34.8005L31.1158 37.0373C30.6686 37.4574 30.6688 38.1568 31.1166 38.5766L31.5951 39.0552C32.015 39.503 32.7144 39.5032 33.1345 39.056L35.3713 36.8413Z" fill="white" stroke="white" stroke-width="0.782609"/>
</svg>

