<svg width="1440" height="50" viewBox="0 0 1440 50" fill="none" xmlns="http://www.w3.org/2000/svg">
<rect width="1440" height="50" fill="#ECF1FA"/>
<path d="M24.768 36.352C30.4 36.352 34.464 33.44 35.04 27.776H29.952C29.536 30.72 27.552 32.16 24.704 32.16C20.928 32.16 18.752 29.408 18.752 24.672V24.416C18.752 19.68 21.056 16.864 24.672 16.864C27.552 16.864 29.088 18.336 29.472 21.088H34.784C34.24 15.456 30.144 12.768 24.64 12.768C18.144 12.768 13.28 17.504 13.28 24.448V24.704C13.28 31.744 17.28 36.352 24.768 36.352ZM44.3635 32.832C41.7395 32.832 40.2675 30.912 40.2675 27.712V27.456C40.2675 24.256 41.8035 22.4 44.3635 22.4C46.9555 22.4 48.4595 24.32 48.4595 27.52V27.744C48.4595 30.912 46.9555 32.832 44.3635 32.832ZM44.3315 36.352C49.3555 36.352 53.1635 32.992 53.1635 27.712V27.456C53.1635 22.24 49.3875 18.88 44.3635 18.88C39.3395 18.88 35.5315 22.304 35.5315 27.552V27.808C35.5315 33.024 39.3395 36.352 44.3315 36.352ZM54.8442 36H59.4842V26.112C59.4842 23.84 60.9242 22.688 62.7162 22.688C64.3483 22.688 65.3403 23.648 65.3403 25.792V36H69.9482V26.112C69.9482 23.84 71.3883 22.688 73.1803 22.688C74.8442 22.688 75.8043 23.648 75.8043 25.792V36H80.4123V25.28C80.4123 20.832 78.0123 18.88 74.9083 18.88C72.7962 18.88 70.6203 19.776 69.2763 21.792C68.4762 19.808 66.8123 18.88 64.6042 18.88C62.1082 18.88 60.3162 20.256 59.4842 21.824V19.264H54.8442V36ZM82.9455 36H87.5855V26.112C87.5855 23.84 89.0255 22.688 90.8175 22.688C92.4495 22.688 93.4415 23.648 93.4415 25.792V36H98.0495V26.112C98.0495 23.84 99.4895 22.688 101.281 22.688C102.945 22.688 103.906 23.648 103.906 25.792V36H108.514V25.28C108.514 20.832 106.114 18.88 103.01 18.88C100.897 18.88 98.7215 19.776 97.3775 21.792C96.5775 19.808 94.9135 18.88 92.7055 18.88C90.2095 18.88 88.4175 20.256 87.5855 21.824V19.264H82.9455V36ZM116.615 36.352C119.367 36.352 121.063 35.072 121.927 33.376V36H126.535V19.264H121.927V29.088C121.927 31.552 120.391 32.768 118.439 32.768C116.455 32.768 115.527 31.68 115.527 29.408V19.264H110.919V30.048C110.919 34.432 113.351 36.352 116.615 36.352ZM129.21 36H133.85V26.336C133.85 23.872 135.354 22.656 137.338 22.656C139.386 22.656 140.282 23.744 140.282 26.016V36H144.922V25.344C144.922 20.864 142.586 18.88 139.29 18.88C136.506 18.88 134.682 20.256 133.85 21.92V19.264H129.21V36ZM147.596 36H152.204V19.264H147.596V36ZM149.868 16.992C151.372 16.992 152.524 15.904 152.524 14.464C152.524 13.024 151.372 11.936 149.868 11.936C148.396 11.936 147.244 13.024 147.244 14.464C147.244 15.904 148.396 16.992 149.868 16.992ZM161.15 36.32C162.398 36.32 163.326 36.096 163.966 35.872V32.288C163.422 32.512 162.91 32.608 162.206 32.608C161.022 32.608 160.35 31.968 160.35 30.624V22.56H163.87V19.264H160.35V15.648H155.742V19.264H153.598V22.56H155.742V31.04C155.742 34.528 157.63 36.32 161.15 36.32ZM167.782 41.696H172.262L181.318 19.264H176.87L173.126 29.312L169.062 19.264H164.07L170.726 34.304L167.782 41.696Z" fill="#334058"/>
<path d="M269.768 36.352C275.4 36.352 279.464 33.44 280.04 27.776H274.952C274.536 30.72 272.552 32.16 269.704 32.16C265.928 32.16 263.752 29.408 263.752 24.672V24.416C263.752 19.68 266.056 16.864 269.672 16.864C272.552 16.864 274.088 18.336 274.472 21.088H279.784C279.24 15.456 275.144 12.768 269.64 12.768C263.144 12.768 258.28 17.504 258.28 24.448V24.704C258.28 31.744 262.28 36.352 269.768 36.352ZM289.364 32.832C286.74 32.832 285.267 30.912 285.267 27.712V27.456C285.267 24.256 286.804 22.4 289.364 22.4C291.956 22.4 293.46 24.32 293.46 27.52V27.744C293.46 30.912 291.956 32.832 289.364 32.832ZM289.332 36.352C294.356 36.352 298.163 32.992 298.163 27.712V27.456C298.163 22.24 294.388 18.88 289.364 18.88C284.339 18.88 280.531 22.304 280.531 27.552V27.808C280.531 33.024 284.339 36.352 289.332 36.352ZM299.844 36H304.484V26.112C304.484 23.84 305.924 22.688 307.716 22.688C309.348 22.688 310.34 23.648 310.34 25.792V36H314.948V26.112C314.948 23.84 316.388 22.688 318.18 22.688C319.844 22.688 320.804 23.648 320.804 25.792V36H325.412V25.28C325.412 20.832 323.012 18.88 319.908 18.88C317.796 18.88 315.62 19.776 314.276 21.792C313.476 19.808 311.812 18.88 309.604 18.88C307.108 18.88 305.316 20.256 304.484 21.824V19.264H299.844V36ZM327.945 36H332.585V26.112C332.585 23.84 334.025 22.688 335.817 22.688C337.45 22.688 338.441 23.648 338.441 25.792V36H343.049V26.112C343.049 23.84 344.49 22.688 346.281 22.688C347.945 22.688 348.906 23.648 348.906 25.792V36H353.514V25.28C353.514 20.832 351.114 18.88 348.01 18.88C345.897 18.88 343.722 19.776 342.378 21.792C341.577 19.808 339.913 18.88 337.705 18.88C335.209 18.88 333.417 20.256 332.585 21.824V19.264H327.945V36ZM361.615 36.352C364.367 36.352 366.063 35.072 366.927 33.376V36H371.535V19.264H366.927V29.088C366.927 31.552 365.391 32.768 363.439 32.768C361.455 32.768 360.527 31.68 360.527 29.408V19.264H355.919V30.048C355.919 34.432 358.351 36.352 361.615 36.352ZM374.21 36H378.85V26.336C378.85 23.872 380.354 22.656 382.338 22.656C384.386 22.656 385.282 23.744 385.282 26.016V36H389.922V25.344C389.922 20.864 387.586 18.88 384.29 18.88C381.506 18.88 379.682 20.256 378.85 21.92V19.264H374.21V36ZM392.596 36H397.204V19.264H392.596V36ZM394.868 16.992C396.372 16.992 397.524 15.904 397.524 14.464C397.524 13.024 396.372 11.936 394.868 11.936C393.396 11.936 392.244 13.024 392.244 14.464C392.244 15.904 393.396 16.992 394.868 16.992ZM406.15 36.32C407.398 36.32 408.326 36.096 408.966 35.872V32.288C408.422 32.512 407.91 32.608 407.206 32.608C406.022 32.608 405.35 31.968 405.35 30.624V22.56H408.87V19.264H405.35V15.648H400.742V19.264H398.598V22.56H400.742V31.04C400.742 34.528 402.63 36.32 406.15 36.32ZM412.782 41.696H417.262L426.318 19.264H421.87L418.126 29.312L414.062 19.264H409.07L415.726 34.304L412.782 41.696Z" fill="#334058"/>
<path d="M514.768 36.352C520.4 36.352 524.464 33.44 525.04 27.776H519.952C519.536 30.72 517.552 32.16 514.704 32.16C510.928 32.16 508.752 29.408 508.752 24.672V24.416C508.752 19.68 511.056 16.864 514.672 16.864C517.552 16.864 519.088 18.336 519.472 21.088H524.784C524.24 15.456 520.144 12.768 514.64 12.768C508.144 12.768 503.28 17.504 503.28 24.448V24.704C503.28 31.744 507.28 36.352 514.768 36.352ZM534.364 32.832C531.74 32.832 530.267 30.912 530.267 27.712V27.456C530.267 24.256 531.804 22.4 534.364 22.4C536.956 22.4 538.46 24.32 538.46 27.52V27.744C538.46 30.912 536.956 32.832 534.364 32.832ZM534.332 36.352C539.356 36.352 543.163 32.992 543.163 27.712V27.456C543.163 22.24 539.388 18.88 534.364 18.88C529.339 18.88 525.531 22.304 525.531 27.552V27.808C525.531 33.024 529.339 36.352 534.332 36.352ZM544.844 36H549.484V26.112C549.484 23.84 550.924 22.688 552.716 22.688C554.348 22.688 555.34 23.648 555.34 25.792V36H559.948V26.112C559.948 23.84 561.388 22.688 563.18 22.688C564.844 22.688 565.804 23.648 565.804 25.792V36H570.412V25.28C570.412 20.832 568.012 18.88 564.908 18.88C562.796 18.88 560.62 19.776 559.276 21.792C558.476 19.808 556.812 18.88 554.604 18.88C552.108 18.88 550.316 20.256 549.484 21.824V19.264H544.844V36ZM572.945 36H577.585V26.112C577.585 23.84 579.025 22.688 580.817 22.688C582.45 22.688 583.441 23.648 583.441 25.792V36H588.049V26.112C588.049 23.84 589.49 22.688 591.281 22.688C592.945 22.688 593.906 23.648 593.906 25.792V36H598.514V25.28C598.514 20.832 596.114 18.88 593.01 18.88C590.897 18.88 588.722 19.776 587.378 21.792C586.577 19.808 584.913 18.88 582.705 18.88C580.209 18.88 578.417 20.256 577.585 21.824V19.264H572.945V36ZM606.615 36.352C609.367 36.352 611.063 35.072 611.927 33.376V36H616.535V19.264H611.927V29.088C611.927 31.552 610.391 32.768 608.439 32.768C606.455 32.768 605.527 31.68 605.527 29.408V19.264H600.919V30.048C600.919 34.432 603.351 36.352 606.615 36.352ZM619.21 36H623.85V26.336C623.85 23.872 625.354 22.656 627.338 22.656C629.386 22.656 630.282 23.744 630.282 26.016V36H634.922V25.344C634.922 20.864 632.586 18.88 629.29 18.88C626.506 18.88 624.682 20.256 623.85 21.92V19.264H619.21V36ZM637.596 36H642.204V19.264H637.596V36ZM639.868 16.992C641.372 16.992 642.524 15.904 642.524 14.464C642.524 13.024 641.372 11.936 639.868 11.936C638.396 11.936 637.244 13.024 637.244 14.464C637.244 15.904 638.396 16.992 639.868 16.992ZM651.15 36.32C652.398 36.32 653.326 36.096 653.966 35.872V32.288C653.422 32.512 652.91 32.608 652.206 32.608C651.022 32.608 650.35 31.968 650.35 30.624V22.56H653.87V19.264H650.35V15.648H645.742V19.264H643.598V22.56H645.742V31.04C645.742 34.528 647.63 36.32 651.15 36.32ZM657.782 41.696H662.262L671.318 19.264H666.87L663.126 29.312L659.062 19.264H654.07L660.726 34.304L657.782 41.696Z" fill="#334058"/>
<path d="M759.768 36.352C765.4 36.352 769.464 33.44 770.04 27.776H764.952C764.536 30.72 762.552 32.16 759.704 32.16C755.928 32.16 753.752 29.408 753.752 24.672V24.416C753.752 19.68 756.056 16.864 759.672 16.864C762.552 16.864 764.088 18.336 764.472 21.088H769.784C769.24 15.456 765.144 12.768 759.64 12.768C753.144 12.768 748.28 17.504 748.28 24.448V24.704C748.28 31.744 752.28 36.352 759.768 36.352ZM779.364 32.832C776.74 32.832 775.267 30.912 775.267 27.712V27.456C775.267 24.256 776.804 22.4 779.364 22.4C781.956 22.4 783.46 24.32 783.46 27.52V27.744C783.46 30.912 781.956 32.832 779.364 32.832ZM779.332 36.352C784.356 36.352 788.163 32.992 788.163 27.712V27.456C788.163 22.24 784.388 18.88 779.364 18.88C774.339 18.88 770.531 22.304 770.531 27.552V27.808C770.531 33.024 774.339 36.352 779.332 36.352ZM789.844 36H794.484V26.112C794.484 23.84 795.924 22.688 797.716 22.688C799.348 22.688 800.34 23.648 800.34 25.792V36H804.948V26.112C804.948 23.84 806.388 22.688 808.18 22.688C809.844 22.688 810.804 23.648 810.804 25.792V36H815.412V25.28C815.412 20.832 813.012 18.88 809.908 18.88C807.796 18.88 805.62 19.776 804.276 21.792C803.476 19.808 801.812 18.88 799.604 18.88C797.108 18.88 795.316 20.256 794.484 21.824V19.264H789.844V36ZM817.945 36H822.585V26.112C822.585 23.84 824.025 22.688 825.817 22.688C827.45 22.688 828.441 23.648 828.441 25.792V36H833.049V26.112C833.049 23.84 834.49 22.688 836.281 22.688C837.945 22.688 838.906 23.648 838.906 25.792V36H843.514V25.28C843.514 20.832 841.114 18.88 838.01 18.88C835.897 18.88 833.722 19.776 832.378 21.792C831.577 19.808 829.913 18.88 827.705 18.88C825.209 18.88 823.417 20.256 822.585 21.824V19.264H817.945V36ZM851.615 36.352C854.367 36.352 856.063 35.072 856.927 33.376V36H861.535V19.264H856.927V29.088C856.927 31.552 855.391 32.768 853.439 32.768C851.455 32.768 850.527 31.68 850.527 29.408V19.264H845.919V30.048C845.919 34.432 848.351 36.352 851.615 36.352ZM864.21 36H868.85V26.336C868.85 23.872 870.354 22.656 872.338 22.656C874.386 22.656 875.282 23.744 875.282 26.016V36H879.922V25.344C879.922 20.864 877.586 18.88 874.29 18.88C871.506 18.88 869.682 20.256 868.85 21.92V19.264H864.21V36ZM882.596 36H887.204V19.264H882.596V36ZM884.868 16.992C886.372 16.992 887.524 15.904 887.524 14.464C887.524 13.024 886.372 11.936 884.868 11.936C883.396 11.936 882.244 13.024 882.244 14.464C882.244 15.904 883.396 16.992 884.868 16.992ZM896.15 36.32C897.398 36.32 898.326 36.096 898.966 35.872V32.288C898.422 32.512 897.91 32.608 897.206 32.608C896.022 32.608 895.35 31.968 895.35 30.624V22.56H898.87V19.264H895.35V15.648H890.742V19.264H888.598V22.56H890.742V31.04C890.742 34.528 892.63 36.32 896.15 36.32ZM902.782 41.696H907.262L916.318 19.264H911.87L908.126 29.312L904.062 19.264H899.07L905.726 34.304L902.782 41.696Z" fill="#334058"/>
<path d="M1004.77 36.352C1010.4 36.352 1014.46 33.44 1015.04 27.776H1009.95C1009.54 30.72 1007.55 32.16 1004.7 32.16C1000.93 32.16 998.752 29.408 998.752 24.672V24.416C998.752 19.68 1001.06 16.864 1004.67 16.864C1007.55 16.864 1009.09 18.336 1009.47 21.088H1014.78C1014.24 15.456 1010.14 12.768 1004.64 12.768C998.144 12.768 993.28 17.504 993.28 24.448V24.704C993.28 31.744 997.28 36.352 1004.77 36.352ZM1024.36 32.832C1021.74 32.832 1020.27 30.912 1020.27 27.712V27.456C1020.27 24.256 1021.8 22.4 1024.36 22.4C1026.96 22.4 1028.46 24.32 1028.46 27.52V27.744C1028.46 30.912 1026.96 32.832 1024.36 32.832ZM1024.33 36.352C1029.36 36.352 1033.16 32.992 1033.16 27.712V27.456C1033.16 22.24 1029.39 18.88 1024.36 18.88C1019.34 18.88 1015.53 22.304 1015.53 27.552V27.808C1015.53 33.024 1019.34 36.352 1024.33 36.352ZM1034.84 36H1039.48V26.112C1039.48 23.84 1040.92 22.688 1042.72 22.688C1044.35 22.688 1045.34 23.648 1045.34 25.792V36H1049.95V26.112C1049.95 23.84 1051.39 22.688 1053.18 22.688C1054.84 22.688 1055.8 23.648 1055.8 25.792V36H1060.41V25.28C1060.41 20.832 1058.01 18.88 1054.91 18.88C1052.8 18.88 1050.62 19.776 1049.28 21.792C1048.48 19.808 1046.81 18.88 1044.6 18.88C1042.11 18.88 1040.32 20.256 1039.48 21.824V19.264H1034.84V36ZM1062.95 36H1067.59V26.112C1067.59 23.84 1069.03 22.688 1070.82 22.688C1072.45 22.688 1073.44 23.648 1073.44 25.792V36H1078.05V26.112C1078.05 23.84 1079.49 22.688 1081.28 22.688C1082.95 22.688 1083.91 23.648 1083.91 25.792V36H1088.51V25.28C1088.51 20.832 1086.11 18.88 1083.01 18.88C1080.9 18.88 1078.72 19.776 1077.38 21.792C1076.58 19.808 1074.91 18.88 1072.71 18.88C1070.21 18.88 1068.42 20.256 1067.59 21.824V19.264H1062.95V36ZM1096.61 36.352C1099.37 36.352 1101.06 35.072 1101.93 33.376V36H1106.53V19.264H1101.93V29.088C1101.93 31.552 1100.39 32.768 1098.44 32.768C1096.45 32.768 1095.53 31.68 1095.53 29.408V19.264H1090.92V30.048C1090.92 34.432 1093.35 36.352 1096.61 36.352ZM1109.21 36H1113.85V26.336C1113.85 23.872 1115.35 22.656 1117.34 22.656C1119.39 22.656 1120.28 23.744 1120.28 26.016V36H1124.92V25.344C1124.92 20.864 1122.59 18.88 1119.29 18.88C1116.51 18.88 1114.68 20.256 1113.85 21.92V19.264H1109.21V36ZM1127.6 36H1132.2V19.264H1127.6V36ZM1129.87 16.992C1131.37 16.992 1132.52 15.904 1132.52 14.464C1132.52 13.024 1131.37 11.936 1129.87 11.936C1128.4 11.936 1127.24 13.024 1127.24 14.464C1127.24 15.904 1128.4 16.992 1129.87 16.992ZM1141.15 36.32C1142.4 36.32 1143.33 36.096 1143.97 35.872V32.288C1143.42 32.512 1142.91 32.608 1142.21 32.608C1141.02 32.608 1140.35 31.968 1140.35 30.624V22.56H1143.87V19.264H1140.35V15.648H1135.74V19.264H1133.6V22.56H1135.74V31.04C1135.74 34.528 1137.63 36.32 1141.15 36.32ZM1147.78 41.696H1152.26L1161.32 19.264H1156.87L1153.13 29.312L1149.06 19.264H1144.07L1150.73 34.304L1147.78 41.696Z" fill="#334058"/>
<path d="M1249.77 36.352C1255.4 36.352 1259.46 33.44 1260.04 27.776H1254.95C1254.54 30.72 1252.55 32.16 1249.7 32.16C1245.93 32.16 1243.75 29.408 1243.75 24.672V24.416C1243.75 19.68 1246.06 16.864 1249.67 16.864C1252.55 16.864 1254.09 18.336 1254.47 21.088H1259.78C1259.24 15.456 1255.14 12.768 1249.64 12.768C1243.14 12.768 1238.28 17.504 1238.28 24.448V24.704C1238.28 31.744 1242.28 36.352 1249.77 36.352ZM1269.36 32.832C1266.74 32.832 1265.27 30.912 1265.27 27.712V27.456C1265.27 24.256 1266.8 22.4 1269.36 22.4C1271.96 22.4 1273.46 24.32 1273.46 27.52V27.744C1273.46 30.912 1271.96 32.832 1269.36 32.832ZM1269.33 36.352C1274.36 36.352 1278.16 32.992 1278.16 27.712V27.456C1278.16 22.24 1274.39 18.88 1269.36 18.88C1264.34 18.88 1260.53 22.304 1260.53 27.552V27.808C1260.53 33.024 1264.34 36.352 1269.33 36.352ZM1279.84 36H1284.48V26.112C1284.48 23.84 1285.92 22.688 1287.72 22.688C1289.35 22.688 1290.34 23.648 1290.34 25.792V36H1294.95V26.112C1294.95 23.84 1296.39 22.688 1298.18 22.688C1299.84 22.688 1300.8 23.648 1300.8 25.792V36H1305.41V25.28C1305.41 20.832 1303.01 18.88 1299.91 18.88C1297.8 18.88 1295.62 19.776 1294.28 21.792C1293.48 19.808 1291.81 18.88 1289.6 18.88C1287.11 18.88 1285.32 20.256 1284.48 21.824V19.264H1279.84V36ZM1307.95 36H1312.59V26.112C1312.59 23.84 1314.03 22.688 1315.82 22.688C1317.45 22.688 1318.44 23.648 1318.44 25.792V36H1323.05V26.112C1323.05 23.84 1324.49 22.688 1326.28 22.688C1327.95 22.688 1328.91 23.648 1328.91 25.792V36H1333.51V25.28C1333.51 20.832 1331.11 18.88 1328.01 18.88C1325.9 18.88 1323.72 19.776 1322.38 21.792C1321.58 19.808 1319.91 18.88 1317.71 18.88C1315.21 18.88 1313.42 20.256 1312.59 21.824V19.264H1307.95V36ZM1341.61 36.352C1344.37 36.352 1346.06 35.072 1346.93 33.376V36H1351.53V19.264H1346.93V29.088C1346.93 31.552 1345.39 32.768 1343.44 32.768C1341.45 32.768 1340.53 31.68 1340.53 29.408V19.264H1335.92V30.048C1335.92 34.432 1338.35 36.352 1341.61 36.352ZM1354.21 36H1358.85V26.336C1358.85 23.872 1360.35 22.656 1362.34 22.656C1364.39 22.656 1365.28 23.744 1365.28 26.016V36H1369.92V25.344C1369.92 20.864 1367.59 18.88 1364.29 18.88C1361.51 18.88 1359.68 20.256 1358.85 21.92V19.264H1354.21V36ZM1372.6 36H1377.2V19.264H1372.6V36ZM1374.87 16.992C1376.37 16.992 1377.52 15.904 1377.52 14.464C1377.52 13.024 1376.37 11.936 1374.87 11.936C1373.4 11.936 1372.24 13.024 1372.24 14.464C1372.24 15.904 1373.4 16.992 1374.87 16.992ZM1386.15 36.32C1387.4 36.32 1388.33 36.096 1388.97 35.872V32.288C1388.42 32.512 1387.91 32.608 1387.21 32.608C1386.02 32.608 1385.35 31.968 1385.35 30.624V22.56H1388.87V19.264H1385.35V15.648H1380.74V19.264H1378.6V22.56H1380.74V31.04C1380.74 34.528 1382.63 36.32 1386.15 36.32ZM1392.78 41.696H1397.26L1406.32 19.264H1401.87L1398.13 29.312L1394.06 19.264H1389.07L1395.73 34.304L1392.78 41.696Z" fill="#334058"/>
<g opacity="0.5">
<mask id="path-8-inside-1_344_476" fill="white">
<path fill-rule="evenodd" clip-rule="evenodd" d="M227.243 28.0953C226.949 29.5485 226.23 30.8819 225.179 31.9269L222.481 29.2116C223.321 28.4976 223.855 27.433 223.855 26.2438C223.855 24.0942 222.112 22.3515 219.962 22.3515C217.813 22.3515 216.07 24.0942 216.07 26.2438C216.07 27.3903 216.566 28.421 217.355 29.1333L214.577 31.8926C213.532 30.8408 212.823 29.5028 212.538 28.0477C212.254 26.5927 212.407 25.0859 212.979 23.718C213.551 22.3501 214.515 21.1824 215.751 20.3627C216.986 19.543 218.437 19.108 219.919 19.1128C221.402 19.1176 222.85 19.562 224.08 20.3896C225.31 21.2173 226.267 22.3912 226.83 23.7628C227.393 25.1344 227.537 26.6421 227.243 28.0953Z"/>
</mask>
<path fill-rule="evenodd" clip-rule="evenodd" d="M227.243 28.0953C226.949 29.5485 226.23 30.8819 225.179 31.9269L222.481 29.2116C223.321 28.4976 223.855 27.433 223.855 26.2438C223.855 24.0942 222.112 22.3515 219.962 22.3515C217.813 22.3515 216.07 24.0942 216.07 26.2438C216.07 27.3903 216.566 28.421 217.355 29.1333L214.577 31.8926C213.532 30.8408 212.823 29.5028 212.538 28.0477C212.254 26.5927 212.407 25.0859 212.979 23.718C213.551 22.3501 214.515 21.1824 215.751 20.3627C216.986 19.543 218.437 19.108 219.919 19.1128C221.402 19.1176 222.85 19.562 224.08 20.3896C225.31 21.2173 226.267 22.3912 226.83 23.7628C227.393 25.1344 227.537 26.6421 227.243 28.0953Z" fill="#334058"/>
<path d="M225.179 31.9269L222.724 34.3654L225.163 36.8197L227.617 34.3812L225.179 31.9269ZM227.243 28.0953L223.852 27.4093V27.4093L227.243 28.0953ZM222.481 29.2116L220.241 26.5747L217.39 28.9965L220.027 31.6501L222.481 29.2116ZM217.355 29.1333L219.793 31.5877L222.384 29.0135L219.673 26.5656L217.355 29.1333ZM214.577 31.8926L212.123 34.3311L214.562 36.7855L217.016 34.3469L214.577 31.8926ZM212.538 28.0477L215.934 27.3837L212.538 28.0477ZM212.979 23.718L209.787 22.3836V22.3836L212.979 23.718ZM215.751 20.3627L217.664 23.2456H217.664L215.751 20.3627ZM219.919 19.1128L219.908 22.5726L219.919 19.1128ZM224.08 20.3896L226.012 17.5191L226.012 17.5191L224.08 20.3896ZM226.83 23.7628L230.031 22.4491V22.4491L226.83 23.7628ZM227.617 34.3812C229.154 32.8539 230.204 30.9051 230.634 28.7812L223.852 27.4093C223.693 28.1918 223.306 28.9098 222.74 29.4725L227.617 34.3812ZM220.027 31.6501L222.724 34.3654L227.633 29.4883L224.935 26.7731L220.027 31.6501ZM220.395 26.2438C220.395 26.375 220.341 26.4901 220.241 26.5747L224.721 31.8485C226.302 30.5052 227.315 28.491 227.315 26.2438H220.395ZM219.962 25.8114C220.201 25.8114 220.395 26.005 220.395 26.2438H227.315C227.315 22.1834 224.023 18.8917 219.962 18.8917V25.8114ZM219.53 26.2438C219.53 26.005 219.724 25.8114 219.962 25.8114V18.8917C215.902 18.8917 212.61 22.1834 212.61 26.2438H219.53ZM219.673 26.5656C219.58 26.4816 219.53 26.371 219.53 26.2438H212.61C212.61 28.4096 213.551 30.3604 215.036 31.701L219.673 26.5656ZM217.016 34.3469L219.793 31.5877L214.916 26.679L212.139 29.4382L217.016 34.3469ZM209.143 28.7117C209.559 30.8384 210.596 32.7939 212.123 34.3311L217.032 29.454C216.469 28.8877 216.087 28.1672 215.934 27.3837L209.143 28.7117ZM209.787 22.3836C208.951 24.3829 208.727 26.5851 209.143 28.7117L215.934 27.3837C215.781 26.6002 215.863 25.7889 216.171 25.0523L209.787 22.3836ZM213.838 17.4798C212.032 18.6778 210.622 20.3844 209.787 22.3836L216.171 25.0523C216.479 24.3158 216.998 23.687 217.664 23.2456L213.838 17.4798ZM219.931 15.653C217.764 15.646 215.643 16.2817 213.838 17.4798L217.664 23.2456C218.329 22.8043 219.11 22.5701 219.908 22.5726L219.931 15.653ZM226.012 17.5191C224.214 16.3095 222.098 15.66 219.931 15.653L219.908 22.5726C220.707 22.5752 221.486 22.8145 222.149 23.2601L226.012 17.5191ZM230.031 22.4491C229.208 20.4445 227.809 18.7288 226.012 17.5191L222.149 23.2601C222.811 23.7058 223.326 24.3379 223.629 25.0765L230.031 22.4491ZM230.634 28.7812C231.063 26.6573 230.854 24.4538 230.031 22.4491L223.629 25.0765C223.933 25.815 224.01 26.6269 223.852 27.4093L230.634 28.7812Z" fill="#334058" mask="url(#path-8-inside-1_344_476)"/>
<path fill-rule="evenodd" clip-rule="evenodd" d="M212.752 16.8973C212.551 17.055 212.356 17.2192 212.166 17.3897L209.719 14.9434C210.334 14.3729 210.999 13.8533 211.708 13.3916C214.156 11.7977 217.022 10.9655 219.943 11.0003C222.864 11.0351 225.709 11.9352 228.118 13.587C228.787 14.0455 229.414 14.5562 229.994 15.1128L227.601 17.5055C225.558 15.6146 222.824 14.459 219.82 14.459L219.783 14.4591C217.587 14.4561 215.437 15.0922 213.596 16.2911C213.305 16.4807 213.023 16.683 212.752 16.8973ZM229.051 19.1265C230.452 21.0275 231.281 23.3769 231.281 25.9197C231.281 29.116 229.972 32.0067 227.862 34.0854L230.086 36.3366C230.127 36.2961 230.168 36.2554 230.209 36.2145C230.996 35.4284 231.687 34.56 232.273 33.6274C233.194 32.1607 233.856 30.5354 234.218 28.8228C234.822 25.9647 234.565 22.9917 233.479 20.2798C232.967 19.0011 232.282 17.8075 231.448 16.7299L229.051 19.1265ZM208.24 16.5348L210.693 18.9877C209.228 20.9126 208.359 23.3146 208.359 25.9197C208.359 29.0102 209.583 31.815 211.571 33.8763L209.2 36.088C209.041 35.9253 208.886 35.7593 208.735 35.59C208.111 34.8892 207.558 34.1331 207.081 33.333C206.193 31.8433 205.569 30.2008 205.248 28.478C204.712 25.6063 205.04 22.6403 206.19 19.9549C206.718 18.7208 207.409 17.5714 208.24 16.5348Z" fill="#334058"/>
<path fill-rule="evenodd" clip-rule="evenodd" d="M213.187 40.1698C215.051 38.6514 217.387 37.7535 219.9 37.7535C222.382 37.7535 224.691 38.6291 226.543 40.1134L226.665 40.1121L229.068 37.7095C226.585 35.5798 223.399 34.2937 219.9 34.2937C216.399 34.2937 213.212 35.5808 210.729 37.7121L213.187 40.1698Z" fill="#334058"/>
</g>
<g opacity="0.5">
<mask id="path-12-inside-2_344_476" fill="white">
<path fill-rule="evenodd" clip-rule="evenodd" d="M717.243 28.0953C716.949 29.5485 716.23 30.8819 715.179 31.9269L712.481 29.2116C713.321 28.4976 713.855 27.433 713.855 26.2438C713.855 24.0942 712.112 22.3515 709.962 22.3515C707.813 22.3515 706.07 24.0942 706.07 26.2438C706.07 27.3903 706.566 28.421 707.355 29.1333L704.577 31.8926C703.532 30.8408 702.823 29.5028 702.538 28.0477C702.254 26.5927 702.407 25.0859 702.979 23.718C703.551 22.3501 704.515 21.1824 705.751 20.3627C706.986 19.543 708.437 19.108 709.919 19.1128C711.402 19.1176 712.85 19.562 714.08 20.3896C715.31 21.2173 716.267 22.3912 716.83 23.7628C717.393 25.1344 717.537 26.6421 717.243 28.0953Z"/>
</mask>
<path fill-rule="evenodd" clip-rule="evenodd" d="M717.243 28.0953C716.949 29.5485 716.23 30.8819 715.179 31.9269L712.481 29.2116C713.321 28.4976 713.855 27.433 713.855 26.2438C713.855 24.0942 712.112 22.3515 709.962 22.3515C707.813 22.3515 706.07 24.0942 706.07 26.2438C706.07 27.3903 706.566 28.421 707.355 29.1333L704.577 31.8926C703.532 30.8408 702.823 29.5028 702.538 28.0477C702.254 26.5927 702.407 25.0859 702.979 23.718C703.551 22.3501 704.515 21.1824 705.751 20.3627C706.986 19.543 708.437 19.108 709.919 19.1128C711.402 19.1176 712.85 19.562 714.08 20.3896C715.31 21.2173 716.267 22.3912 716.83 23.7628C717.393 25.1344 717.537 26.6421 717.243 28.0953Z" fill="#334058"/>
<path d="M715.179 31.9269L712.724 34.3654L715.163 36.8197L717.617 34.3812L715.179 31.9269ZM717.243 28.0953L713.852 27.4093V27.4093L717.243 28.0953ZM712.481 29.2116L710.241 26.5747L707.39 28.9965L710.027 31.6501L712.481 29.2116ZM707.355 29.1333L709.793 31.5877L712.384 29.0135L709.673 26.5656L707.355 29.1333ZM704.577 31.8926L702.123 34.3311L704.562 36.7855L707.016 34.3469L704.577 31.8926ZM702.538 28.0477L705.934 27.3837L702.538 28.0477ZM702.979 23.718L699.787 22.3836V22.3836L702.979 23.718ZM705.751 20.3627L707.664 23.2456H707.664L705.751 20.3627ZM709.919 19.1128L709.908 22.5726L709.919 19.1128ZM714.08 20.3896L716.012 17.5191L716.012 17.5191L714.08 20.3896ZM716.83 23.7628L720.031 22.4491V22.4491L716.83 23.7628ZM717.617 34.3812C719.154 32.8539 720.204 30.9051 720.634 28.7812L713.852 27.4093C713.693 28.1918 713.306 28.9098 712.74 29.4725L717.617 34.3812ZM710.027 31.6501L712.724 34.3654L717.633 29.4883L714.935 26.7731L710.027 31.6501ZM710.395 26.2438C710.395 26.375 710.341 26.4901 710.241 26.5747L714.721 31.8485C716.302 30.5052 717.315 28.491 717.315 26.2438H710.395ZM709.962 25.8114C710.201 25.8114 710.395 26.005 710.395 26.2438H717.315C717.315 22.1834 714.023 18.8917 709.962 18.8917V25.8114ZM709.53 26.2438C709.53 26.005 709.724 25.8114 709.962 25.8114V18.8917C705.902 18.8917 702.61 22.1834 702.61 26.2438H709.53ZM709.673 26.5656C709.58 26.4816 709.53 26.371 709.53 26.2438H702.61C702.61 28.4096 703.551 30.3604 705.036 31.701L709.673 26.5656ZM707.016 34.3469L709.793 31.5877L704.916 26.679L702.139 29.4382L707.016 34.3469ZM699.143 28.7117C699.559 30.8384 700.596 32.7939 702.123 34.3311L707.032 29.454C706.469 28.8877 706.087 28.1672 705.934 27.3837L699.143 28.7117ZM699.787 22.3836C698.951 24.3829 698.727 26.5851 699.143 28.7117L705.934 27.3837C705.781 26.6002 705.863 25.7889 706.171 25.0523L699.787 22.3836ZM703.838 17.4798C702.032 18.6778 700.622 20.3844 699.787 22.3836L706.171 25.0523C706.479 24.3158 706.998 23.687 707.664 23.2456L703.838 17.4798ZM709.931 15.653C707.764 15.646 705.643 16.2817 703.838 17.4798L707.664 23.2456C708.329 22.8043 709.11 22.5701 709.908 22.5726L709.931 15.653ZM716.012 17.5191C714.214 16.3095 712.098 15.66 709.931 15.653L709.908 22.5726C710.707 22.5752 711.486 22.8145 712.149 23.2601L716.012 17.5191ZM720.031 22.4491C719.208 20.4445 717.809 18.7288 716.012 17.5191L712.149 23.2601C712.811 23.7058 713.326 24.3379 713.629 25.0765L720.031 22.4491ZM720.634 28.7812C721.063 26.6573 720.854 24.4538 720.031 22.4491L713.629 25.0765C713.933 25.815 714.01 26.6269 713.852 27.4093L720.634 28.7812Z" fill="#334058" mask="url(#path-12-inside-2_344_476)"/>
<path fill-rule="evenodd" clip-rule="evenodd" d="M702.752 16.8973C702.551 17.055 702.356 17.2192 702.166 17.3897L699.719 14.9434C700.334 14.3729 700.999 13.8533 701.708 13.3916C704.156 11.7977 707.022 10.9655 709.943 11.0003C712.864 11.0351 715.709 11.9352 718.118 13.587C718.787 14.0455 719.414 14.5562 719.994 15.1128L717.601 17.5055C715.558 15.6146 712.824 14.459 709.82 14.459L709.783 14.4591C707.587 14.4561 705.437 15.0922 703.596 16.2911C703.305 16.4807 703.023 16.683 702.752 16.8973ZM719.051 19.1265C720.452 21.0275 721.281 23.3769 721.281 25.9197C721.281 29.116 719.972 32.0067 717.862 34.0854L720.086 36.3366C720.127 36.2961 720.168 36.2554 720.209 36.2145C720.996 35.4284 721.687 34.56 722.273 33.6274C723.194 32.1607 723.856 30.5354 724.218 28.8228C724.822 25.9647 724.565 22.9917 723.479 20.2798C722.967 19.0011 722.282 17.8075 721.448 16.7299L719.051 19.1265ZM698.24 16.5348L700.693 18.9877C699.228 20.9126 698.359 23.3146 698.359 25.9197C698.359 29.0102 699.583 31.815 701.571 33.8763L699.2 36.088C699.041 35.9253 698.886 35.7593 698.735 35.59C698.111 34.8892 697.558 34.1331 697.081 33.333C696.193 31.8433 695.569 30.2008 695.248 28.478C694.712 25.6063 695.04 22.6403 696.19 19.9549C696.718 18.7208 697.409 17.5714 698.24 16.5348Z" fill="#334058"/>
<path fill-rule="evenodd" clip-rule="evenodd" d="M703.187 40.1698C705.051 38.6514 707.387 37.7535 709.9 37.7535C712.382 37.7535 714.691 38.6291 716.543 40.1134L716.665 40.1121L719.068 37.7095C716.585 35.5798 713.399 34.2937 709.9 34.2937C706.399 34.2937 703.212 35.5808 700.729 37.7121L703.187 40.1698Z" fill="#334058"/>
</g>
<g opacity="0.5">
<mask id="path-16-inside-3_344_476" fill="white">
<path fill-rule="evenodd" clip-rule="evenodd" d="M1207.24 28.0953C1206.95 29.5485 1206.23 30.8819 1205.18 31.9269L1202.48 29.2116C1203.32 28.4976 1203.85 27.433 1203.85 26.2438C1203.85 24.0942 1202.11 22.3515 1199.96 22.3515C1197.81 22.3515 1196.07 24.0942 1196.07 26.2438C1196.07 27.3903 1196.57 28.421 1197.35 29.1333L1194.58 31.8926C1193.53 30.8408 1192.82 29.5028 1192.54 28.0477C1192.25 26.5927 1192.41 25.0859 1192.98 23.718C1193.55 22.3501 1194.52 21.1824 1195.75 20.3627C1196.99 19.543 1198.44 19.108 1199.92 19.1128C1201.4 19.1176 1202.85 19.562 1204.08 20.3896C1205.31 21.2173 1206.27 22.3912 1206.83 23.7628C1207.39 25.1344 1207.54 26.6421 1207.24 28.0953Z"/>
</mask>
<path fill-rule="evenodd" clip-rule="evenodd" d="M1207.24 28.0953C1206.95 29.5485 1206.23 30.8819 1205.18 31.9269L1202.48 29.2116C1203.32 28.4976 1203.85 27.433 1203.85 26.2438C1203.85 24.0942 1202.11 22.3515 1199.96 22.3515C1197.81 22.3515 1196.07 24.0942 1196.07 26.2438C1196.07 27.3903 1196.57 28.421 1197.35 29.1333L1194.58 31.8926C1193.53 30.8408 1192.82 29.5028 1192.54 28.0477C1192.25 26.5927 1192.41 25.0859 1192.98 23.718C1193.55 22.3501 1194.52 21.1824 1195.75 20.3627C1196.99 19.543 1198.44 19.108 1199.92 19.1128C1201.4 19.1176 1202.85 19.562 1204.08 20.3896C1205.31 21.2173 1206.27 22.3912 1206.83 23.7628C1207.39 25.1344 1207.54 26.6421 1207.24 28.0953Z" fill="#334058"/>
<path d="M1205.18 31.9269L1202.72 34.3654L1205.16 36.8197L1207.62 34.3812L1205.18 31.9269ZM1207.24 28.0953L1203.85 27.4093V27.4093L1207.24 28.0953ZM1202.48 29.2116L1200.24 26.5747L1197.39 28.9965L1200.03 31.6501L1202.48 29.2116ZM1197.35 29.1333L1199.79 31.5877L1202.38 29.0135L1199.67 26.5656L1197.35 29.1333ZM1194.58 31.8926L1192.12 34.3311L1194.56 36.7855L1197.02 34.3469L1194.58 31.8926ZM1192.54 28.0477L1195.93 27.3837L1192.54 28.0477ZM1192.98 23.718L1189.79 22.3836V22.3836L1192.98 23.718ZM1195.75 20.3627L1197.66 23.2456H1197.66L1195.75 20.3627ZM1199.92 19.1128L1199.91 22.5726L1199.92 19.1128ZM1204.08 20.3896L1206.01 17.5191L1206.01 17.5191L1204.08 20.3896ZM1206.83 23.7628L1210.03 22.4491V22.4491L1206.83 23.7628ZM1207.62 34.3812C1209.15 32.8539 1210.2 30.9051 1210.63 28.7812L1203.85 27.4093C1203.69 28.1918 1203.31 28.9098 1202.74 29.4725L1207.62 34.3812ZM1200.03 31.6501L1202.72 34.3654L1207.63 29.4883L1204.94 26.7731L1200.03 31.6501ZM1200.39 26.2438C1200.39 26.375 1200.34 26.4901 1200.24 26.5747L1204.72 31.8485C1206.3 30.5052 1207.31 28.491 1207.31 26.2438H1200.39ZM1199.96 25.8114C1200.2 25.8114 1200.39 26.005 1200.39 26.2438H1207.31C1207.31 22.1834 1204.02 18.8917 1199.96 18.8917V25.8114ZM1199.53 26.2438C1199.53 26.005 1199.72 25.8114 1199.96 25.8114V18.8917C1195.9 18.8917 1192.61 22.1834 1192.61 26.2438H1199.53ZM1199.67 26.5656C1199.58 26.4816 1199.53 26.371 1199.53 26.2438H1192.61C1192.61 28.4096 1193.55 30.3604 1195.04 31.701L1199.67 26.5656ZM1197.02 34.3469L1199.79 31.5877L1194.92 26.679L1192.14 29.4382L1197.02 34.3469ZM1189.14 28.7117C1189.56 30.8384 1190.6 32.7939 1192.12 34.3311L1197.03 29.454C1196.47 28.8877 1196.09 28.1672 1195.93 27.3837L1189.14 28.7117ZM1189.79 22.3836C1188.95 24.3829 1188.73 26.5851 1189.14 28.7117L1195.93 27.3837C1195.78 26.6002 1195.86 25.7889 1196.17 25.0523L1189.79 22.3836ZM1193.84 17.4798C1192.03 18.6778 1190.62 20.3844 1189.79 22.3836L1196.17 25.0523C1196.48 24.3158 1197 23.687 1197.66 23.2456L1193.84 17.4798ZM1199.93 15.653C1197.76 15.646 1195.64 16.2817 1193.84 17.4798L1197.66 23.2456C1198.33 22.8043 1199.11 22.5701 1199.91 22.5726L1199.93 15.653ZM1206.01 17.5191C1204.21 16.3095 1202.1 15.66 1199.93 15.653L1199.91 22.5726C1200.71 22.5752 1201.49 22.8145 1202.15 23.2601L1206.01 17.5191ZM1210.03 22.4491C1209.21 20.4445 1207.81 18.7288 1206.01 17.5191L1202.15 23.2601C1202.81 23.7058 1203.33 24.3379 1203.63 25.0765L1210.03 22.4491ZM1210.63 28.7812C1211.06 26.6573 1210.85 24.4538 1210.03 22.4491L1203.63 25.0765C1203.93 25.815 1204.01 26.6269 1203.85 27.4093L1210.63 28.7812Z" fill="#334058" mask="url(#path-16-inside-3_344_476)"/>
<path fill-rule="evenodd" clip-rule="evenodd" d="M1192.75 16.8973C1192.55 17.055 1192.36 17.2192 1192.17 17.3897L1189.72 14.9434C1190.33 14.3729 1191 13.8533 1191.71 13.3916C1194.16 11.7977 1197.02 10.9655 1199.94 11.0003C1202.86 11.0351 1205.71 11.9352 1208.12 13.587C1208.79 14.0455 1209.41 14.5562 1209.99 15.1128L1207.6 17.5055C1205.56 15.6146 1202.82 14.459 1199.82 14.459L1199.78 14.4591C1197.59 14.4561 1195.44 15.0922 1193.6 16.2911C1193.3 16.4807 1193.02 16.683 1192.75 16.8973ZM1209.05 19.1265C1210.45 21.0275 1211.28 23.3769 1211.28 25.9197C1211.28 29.116 1209.97 32.0067 1207.86 34.0854L1210.09 36.3366C1210.13 36.2961 1210.17 36.2554 1210.21 36.2145C1211 35.4284 1211.69 34.56 1212.27 33.6274C1213.19 32.1607 1213.86 30.5354 1214.22 28.8228C1214.82 25.9647 1214.56 22.9917 1213.48 20.2798C1212.97 19.0011 1212.28 17.8075 1211.45 16.7299L1209.05 19.1265ZM1188.24 16.5348L1190.69 18.9877C1189.23 20.9126 1188.36 23.3146 1188.36 25.9197C1188.36 29.0102 1189.58 31.815 1191.57 33.8763L1189.2 36.088C1189.04 35.9253 1188.89 35.7593 1188.74 35.59C1188.11 34.8892 1187.56 34.1331 1187.08 33.333C1186.19 31.8433 1185.57 30.2008 1185.25 28.478C1184.71 25.6063 1185.04 22.6403 1186.19 19.9549C1186.72 18.7208 1187.41 17.5714 1188.24 16.5348Z" fill="#334058"/>
<path fill-rule="evenodd" clip-rule="evenodd" d="M1193.19 40.1698C1195.05 38.6514 1197.39 37.7535 1199.9 37.7535C1202.38 37.7535 1204.69 38.6291 1206.54 40.1134L1206.67 40.1121L1209.07 37.7095C1206.59 35.5798 1203.4 34.2937 1199.9 34.2937C1196.4 34.2937 1193.21 35.5808 1190.73 37.7121L1193.19 40.1698Z" fill="#334058"/>
</g>
<g opacity="0.5">
<path d="M465.091 31.9855C464.155 32.2122 463.176 32.3454 462.161 32.3454C461.355 32.3454 460.569 32.266 459.808 32.1201L455.361 34.3103C455.361 32.7944 455.359 31.3509 455.36 30.2799C452.616 28.4127 450.828 25.4519 450.828 22.0887C450.828 16.3979 455.925 11.832 462.161 11.832C468.398 11.832 473.495 16.3979 473.495 22.0887C473.495 23.4784 473.186 24.7988 472.636 26.0044" stroke="#334058" stroke-width="3.2" stroke-linecap="round" stroke-linejoin="round"/>
<path d="M472.076 40.1647C468.164 40.1647 464.992 36.9928 464.992 33.0814C464.992 29.17 468.164 25.998 472.076 25.998C475.988 25.998 479.159 29.17 479.159 33.0814C479.159 36.9928 475.988 40.1647 472.076 40.1647Z" stroke="#334058" stroke-width="3.2" stroke-linecap="round" stroke-linejoin="round"/>
<path d="M475.233 31.5078L471.298 35.4433L468.938 33.0817" stroke="#334058" stroke-width="2.16665" stroke-linecap="round" stroke-linejoin="round"/>
<path d="M462.743 22.1014C462.958 22.3169 462.958 22.6643 462.743 22.8798C462.528 23.0953 462.181 23.0953 461.966 22.8798C461.751 22.6643 461.751 22.3169 461.966 22.1014C462.181 21.8881 462.528 21.8881 462.743 22.1014Z" fill="#334058" stroke="#334058" stroke-width="2.125" stroke-linecap="round" stroke-linejoin="round"/>
<path d="M467.782 22.1014C467.998 22.3169 467.998 22.6643 467.782 22.8798C467.567 23.0953 467.22 23.0953 467.005 22.8798C466.79 22.6643 466.79 22.3169 467.005 22.1014C467.22 21.8881 467.569 21.8881 467.782 22.1014Z" fill="#334058" stroke="#334058" stroke-width="2.125" stroke-linecap="round" stroke-linejoin="round"/>
<path d="M457.712 22.1014C457.927 22.3169 457.927 22.6643 457.712 22.8798C457.497 23.0953 457.15 23.0953 456.935 22.8798C456.72 22.6643 456.72 22.3169 456.935 22.1014C457.15 21.8881 457.499 21.8881 457.712 22.1014Z" fill="#334058" stroke="#334058" stroke-width="2.125" stroke-linecap="round" stroke-linejoin="round"/>
</g>
<g opacity="0.5">
<path d="M955.091 31.9855C954.155 32.2122 953.176 32.3454 952.161 32.3454C951.355 32.3454 950.569 32.266 949.808 32.1201L945.361 34.3103C945.361 32.7944 945.359 31.3509 945.36 30.2799C942.616 28.4127 940.828 25.4519 940.828 22.0887C940.828 16.3979 945.925 11.832 952.161 11.832C958.398 11.832 963.495 16.3979 963.495 22.0887C963.495 23.4784 963.186 24.7988 962.636 26.0044" stroke="#334058" stroke-width="3.2" stroke-linecap="round" stroke-linejoin="round"/>
<path d="M962.076 40.1647C958.164 40.1647 954.992 36.9928 954.992 33.0814C954.992 29.17 958.164 25.998 962.076 25.998C965.988 25.998 969.159 29.17 969.159 33.0814C969.159 36.9928 965.988 40.1647 962.076 40.1647Z" stroke="#334058" stroke-width="3.2" stroke-linecap="round" stroke-linejoin="round"/>
<path d="M965.233 31.5078L961.298 35.4433L958.938 33.0817" stroke="#334058" stroke-width="2.16665" stroke-linecap="round" stroke-linejoin="round"/>
<path d="M952.743 22.1014C952.958 22.3169 952.958 22.6643 952.743 22.8798C952.528 23.0953 952.181 23.0953 951.966 22.8798C951.751 22.6643 951.751 22.3169 951.966 22.1014C952.181 21.8881 952.528 21.8881 952.743 22.1014Z" fill="#334058" stroke="#334058" stroke-width="2.125" stroke-linecap="round" stroke-linejoin="round"/>
<path d="M957.782 22.1014C957.998 22.3169 957.998 22.6643 957.782 22.8798C957.567 23.0953 957.22 23.0953 957.005 22.8798C956.79 22.6643 956.79 22.3169 957.005 22.1014C957.22 21.8881 957.569 21.8881 957.782 22.1014Z" fill="#334058" stroke="#334058" stroke-width="2.125" stroke-linecap="round" stroke-linejoin="round"/>
<path d="M947.712 22.1014C947.927 22.3169 947.927 22.6643 947.712 22.8798C947.497 23.0953 947.15 23.0953 946.935 22.8798C946.72 22.6643 946.72 22.3169 946.935 22.1014C947.15 21.8881 947.499 21.8881 947.712 22.1014Z" fill="#334058" stroke="#334058" stroke-width="2.125" stroke-linecap="round" stroke-linejoin="round"/>
</g>
</svg>
