<svg width="60" height="60" viewBox="0 0 60 60" fill="none" xmlns="http://www.w3.org/2000/svg">
<rect width="60" height="60" rx="12" fill="#0096FA"/>
<path d="M30.5 21V22.0833" stroke="white" stroke-width="1.625" stroke-linecap="round" stroke-linejoin="round"/>
<path d="M30.5052 28.5846C32.001 28.5846 33.2135 27.3721 33.2135 25.8763C33.2135 24.3805 32.001 23.168 30.5052 23.168C29.0094 23.168 27.7969 24.3805 27.7969 25.8763C27.7969 27.3721 29.0094 28.5846 30.5052 28.5846Z" fill="white" stroke="#0096FA" stroke-width="1.625" stroke-linecap="round" stroke-linejoin="round"/>
<path d="M33.2031 27.7695H27.7865C26.5796 27.7695 25.8906 28.9181 25.8906 29.9362V32.6445C25.8906 33.6626 26.5796 34.8112 27.7865 34.8112H33.2031C34.41 34.8112 35.099 33.6626 35.099 32.6445V29.9362C35.099 28.9181 34.41 27.7695 33.2031 27.7695Z" fill="white" stroke="#0096FA" stroke-width="1.625" stroke-linecap="round" stroke-linejoin="round"/>
<path d="M36.1875 33.1875H24.8125C24.1906 33.1875 23.7664 33.6034 23.5413 33.9786C23.3064 34.37 23.1875 34.8583 23.1875 35.3542V38.0625C23.1875 38.5584 23.3064 39.0467 23.5413 39.4381C23.7664 39.8133 24.1906 40.2292 24.8125 40.2292H36.1875C36.8094 40.2292 37.2336 39.8133 37.4587 39.4381C37.6936 39.0467 37.8125 38.5584 37.8125 38.0625V35.3542C37.8125 34.8583 37.6936 34.37 37.4587 33.9786C37.2336 33.6034 36.8094 33.1875 36.1875 33.1875Z" fill="white" stroke="#0096FA" stroke-width="1.625" stroke-linecap="round" stroke-linejoin="round"/>
</svg>

