<svg width="60" height="60" viewBox="0 0 60 60" fill="none" xmlns="http://www.w3.org/2000/svg">
<rect width="60" height="60" rx="12" fill="#00BFFC"/>
<path d="M25.8932 39.703C24.4307 37.6159 23.5703 35.0766 23.5703 32.3348C23.5703 28.7841 26.4471 25.9062 29.9957 25.9062C33.5442 25.9062 36.421 28.7841 36.421 32.3348" stroke="white" stroke-width="2" stroke-linecap="round" stroke-linejoin="round"/>
<path d="M36.7714 38.7474C36.6557 38.7538 36.5421 38.7645 36.4254 38.7645C32.8768 38.7645 30 35.8867 30 32.3359" stroke="white" stroke-width="2" stroke-linecap="round" stroke-linejoin="round"/>
<path d="M31.3397 40.5241C28.6097 38.8216 26.7915 35.7916 26.7915 32.3362C26.7915 30.5609 28.2304 29.1219 30.0047 29.1219C31.779 29.1219 33.2179 30.5609 33.2179 32.3362C33.2179 34.1116 34.6568 35.5505 36.4311 35.5505C38.2054 35.5505 39.6443 34.1116 39.6443 32.3362C39.6443 27.0101 35.3286 22.6934 30.0058 22.6934C24.6829 22.6934 20.3672 27.0101 20.3672 32.3362C20.3672 33.5234 20.5 34.6794 20.7443 35.7937" stroke="white" stroke-width="2" stroke-linecap="round" stroke-linejoin="round"/>
<path d="M38.9734 23.5435C36.7823 21.0546 33.5787 19.4785 30.0023 19.4785C26.4259 19.4785 23.2223 21.0546 21.0312 23.5435" stroke="white" stroke-width="2" stroke-linecap="round" stroke-linejoin="round"/>
</svg>
