<svg width="61" height="60" viewBox="0 0 61 60" fill="none" xmlns="http://www.w3.org/2000/svg">
<rect x="0.791016" width="60" height="60" rx="12" fill="#00BFFC"/>
<path d="M35.9019 22.0174L21.5747 28.2569C21.2362 28.4043 20.8583 28.2557 20.711 27.9173C20.5799 27.6164 20.7122 27.201 21.0506 27.0536L35.4907 20.7649C35.7915 20.6339 35.9777 20.2396 35.8303 19.9012C35.4045 18.9235 34.2169 18.4565 33.2392 18.8823L19.4008 24.9089C18.0471 25.4985 17.4691 27.0476 18.0423 28.3637L23.2828 40.3971C23.8724 41.7508 25.3838 42.3452 26.7376 41.7556L41.6665 35.2541C42.7194 34.7955 43.2404 33.6292 42.7982 32.6139L38.6058 22.9872C38.18 22.0094 36.9548 21.5588 35.9019 22.0174ZM37.6161 30.576C36.9392 30.8708 36.1834 30.5736 35.8887 29.8967C35.6103 29.2575 35.8911 28.4641 36.5679 28.1693C37.2072 27.8909 38.0169 28.2093 38.2953 28.8486C38.5901 29.5255 38.2553 30.2976 37.6161 30.576Z" fill="white"/>
</svg>
