<svg width="321" height="214" viewBox="0 0 321 214" fill="none" xmlns="http://www.w3.org/2000/svg">
<rect y="130" width="321" height="84" rx="12" fill="white"/>
<rect x="52" y="187" width="199" height="8" rx="2" fill="#ECF1FA"/>
<path d="M58.16 167H60.224V164.68H61.76V163.096H60.224V155.56H57.552L52.496 163.928V164.68H58.16V167ZM54.768 163.096L58.192 157.176V163.096H54.768ZM62.49 167H70.762V165.352H65.898L68.442 162.872C69.802 161.56 70.682 160.264 70.682 158.776C70.682 156.76 69.274 155.4 66.906 155.4C64.49 155.4 62.986 156.84 62.842 159.336H64.794C64.986 157.72 65.706 157.064 66.842 157.064C67.946 157.064 68.554 157.736 68.554 158.808C68.554 159.896 67.898 160.904 66.81 162.056L62.49 166.616V167ZM73.7259 167.112C74.4459 167.112 75.0059 166.568 75.0059 165.864C75.0059 165.16 74.4459 164.6 73.7259 164.6C73.0219 164.6 72.4619 165.16 72.4619 165.864C72.4619 166.568 73.0219 167.112 73.7259 167.112ZM77.7718 167H79.9158V155.56H78.0118L75.3558 157.448V159.32L77.7718 157.672V167ZM84.3968 167H86.5408V155.56H84.6368L81.9808 157.448V159.32L84.3968 157.672V167ZM93.8359 165.464C92.1239 165.464 91.1319 164.152 91.1319 161.56V160.984C91.1319 158.44 92.0759 157.064 93.8039 157.064C95.5159 157.064 96.4439 158.536 96.4439 160.968V161.528C96.4439 164.12 95.5959 165.464 93.8359 165.464ZM93.7879 167.16C96.7799 167.16 98.5719 164.968 98.5719 161.528V160.952C98.5719 157.512 96.6839 155.4 93.7879 155.4C90.9079 155.4 88.9879 157.528 88.9879 161V161.576C88.9879 165.016 90.8759 167.16 93.7879 167.16ZM105.546 168.628H106.712C105.821 167.44 105.04 165.845 105.04 163.557C105.04 161.28 105.821 159.674 106.712 158.486H105.546C104.6 159.608 103.72 161.269 103.72 163.557C103.72 165.856 104.6 167.506 105.546 168.628ZM109.297 165.944H110.408V163.766H112.421V162.732H110.408V160.554H109.297V162.732H107.295V163.766H109.297V165.944ZM116.271 167.11C117.855 167.11 119.197 166.285 119.197 164.734C119.197 163.777 118.658 163.095 117.734 162.765C118.438 162.457 118.9 161.918 118.9 161.115C118.9 159.817 117.679 159.025 116.271 159.025C114.907 159.025 113.631 159.806 113.631 161.137C113.631 161.918 114.071 162.49 114.797 162.776C113.917 163.084 113.323 163.777 113.323 164.778C113.323 166.318 114.709 167.11 116.271 167.11ZM116.271 166.01C115.479 166.01 114.797 165.537 114.797 164.657C114.797 163.777 115.479 163.304 116.282 163.304C117.096 163.304 117.734 163.777 117.734 164.646C117.734 165.526 117.107 166.01 116.271 166.01ZM116.293 162.347C115.611 162.347 115.028 161.929 115.028 161.214C115.028 160.51 115.578 160.081 116.271 160.081C116.975 160.081 117.514 160.532 117.514 161.203C117.514 161.918 117.008 162.347 116.293 162.347ZM121.083 167.077C121.578 167.077 121.963 166.703 121.963 166.219C121.963 165.735 121.578 165.35 121.083 165.35C120.599 165.35 120.214 165.735 120.214 166.219C120.214 166.703 120.599 167.077 121.083 167.077ZM125.719 167.11C127.413 167.11 128.612 166.065 128.612 164.404C128.612 162.754 127.611 161.764 126.192 161.764C125.356 161.764 124.806 162.072 124.498 162.424L124.509 160.29H128.161V159.135H123.387L123.321 163.513H124.069C124.421 163.106 124.905 162.831 125.708 162.831C126.577 162.831 127.127 163.436 127.127 164.382C127.127 165.35 126.61 165.977 125.708 165.977C124.696 165.977 124.399 165.471 124.278 164.745H122.914C123.002 166.098 123.871 167.11 125.719 167.11ZM131.078 161.984C130.561 161.984 130.231 161.632 130.231 160.961C130.231 160.301 130.561 159.938 131.078 159.938C131.595 159.938 131.914 160.323 131.914 160.961C131.914 161.61 131.595 161.984 131.078 161.984ZM131.067 162.875C132.145 162.875 132.981 162.061 132.981 160.95C132.981 159.85 132.134 159.058 131.078 159.058C130.022 159.058 129.153 159.872 129.153 160.972C129.153 162.061 129.989 162.875 131.067 162.875ZM130.231 167H131.166L136.226 159.135H135.302L130.231 167ZM135.39 166.219C134.873 166.219 134.543 165.867 134.543 165.196C134.543 164.536 134.873 164.173 135.39 164.173C135.907 164.173 136.226 164.558 136.226 165.196C136.226 165.845 135.907 166.219 135.39 166.219ZM135.379 167.11C136.457 167.11 137.304 166.296 137.304 165.185C137.304 164.085 136.446 163.293 135.39 163.293C134.334 163.293 133.476 164.107 133.476 165.207C133.476 166.296 134.301 167.11 135.379 167.11ZM137.819 168.606H138.974C139.92 167.484 140.8 165.823 140.8 163.535C140.8 161.236 139.92 159.586 138.974 158.464H137.819C138.699 159.652 139.48 161.247 139.48 163.535C139.48 165.812 138.699 167.418 137.819 168.606Z" fill="#020D30"/>
<circle cx="32" cy="161" r="12" fill="#00BFFC"/>
<path d="M23.621 164H28.211V162.578H25.457V161.408H27.536V160.094H25.457V158.987H28.067V157.565H23.621V164ZM30.3647 164H32.2187V158.987H33.8837V157.565H28.6997V158.987H30.3647V164ZM34.6952 164H36.5492V161.462H38.6642V164H40.5092V157.565H38.6642V160.022H36.5492V157.565H34.6952V164Z" fill="#0000FF"/>
<circle cx="32" cy="161" r="12" fill="#DBE5F4"/>
<path d="M23.621 164H28.211V162.578H25.457V161.408H27.536V160.094H25.457V158.987H28.067V157.565H23.621V164ZM30.3647 164H32.2187V158.987H33.8837V157.565H28.6997V158.987H30.3647V164ZM34.6952 164H36.5492V161.462H38.6642V164H40.5092V157.565H38.6642V160.022H36.5492V157.565H34.6952V164Z" fill="#020D30"/>
<rect y="42" width="321" height="84" rx="12" fill="white"/>
<rect x="52" y="99" width="199" height="8" rx="2" fill="#ECF1FA"/>
<path d="M54.928 79H57.072V67.56H55.168L52.512 69.448V71.32L54.928 69.672V79ZM60.7728 79.112C61.4928 79.112 62.0528 78.568 62.0528 77.864C62.0528 77.16 61.4928 76.6 60.7728 76.6C60.0688 76.6 59.5088 77.16 59.5088 77.864C59.5088 78.568 60.0688 79.112 60.7728 79.112ZM63.2556 79H71.5276V77.352H66.6636L69.2076 74.872C70.5676 73.56 71.4476 72.264 71.4476 70.776C71.4476 68.76 70.0396 67.4 67.6716 67.4C65.2556 67.4 63.7516 68.84 63.6076 71.336H65.5596C65.7516 69.72 66.4716 69.064 67.6076 69.064C68.7116 69.064 69.3196 69.736 69.3196 70.808C69.3196 71.896 68.6636 72.904 67.5756 74.056L63.2556 78.616V79ZM77.0976 79.144C80.0416 79.144 81.7056 77.048 81.7056 73.288V72.696C81.7056 69.4 80.2336 67.384 77.2416 67.384C74.6336 67.384 73.0016 68.968 73.0016 71.304C73.0016 73.56 74.5856 75.016 76.7936 75.016C78.1536 75.016 79.0816 74.44 79.6096 73.576C79.5776 76.184 78.6976 77.496 77.0656 77.496C75.8336 77.496 75.3056 76.92 75.0976 76.024H73.0976C73.3696 77.992 74.7616 79.144 77.0976 79.144ZM77.2416 73.528C75.9296 73.528 75.0976 72.616 75.0976 71.24C75.0976 69.88 75.9456 68.968 77.2256 68.968C78.5376 68.968 79.4496 69.864 79.4496 71.4C79.4496 72.664 78.5376 73.528 77.2416 73.528ZM87.207 79.144C90.151 79.144 91.815 77.048 91.815 73.288V72.696C91.815 69.4 90.343 67.384 87.351 67.384C84.743 67.384 83.111 68.968 83.111 71.304C83.111 73.56 84.695 75.016 86.903 75.016C88.263 75.016 89.191 74.44 89.719 73.576C89.687 76.184 88.807 77.496 87.175 77.496C85.943 77.496 85.415 76.92 85.207 76.024H83.207C83.479 77.992 84.871 79.144 87.207 79.144ZM87.351 73.528C86.039 73.528 85.207 72.616 85.207 71.24C85.207 69.88 86.055 68.968 87.335 68.968C88.647 68.968 89.559 69.864 89.559 71.4C89.559 72.664 88.647 73.528 87.351 73.528ZM98.7961 80.628H99.9621C99.0711 79.44 98.2901 77.845 98.2901 75.557C98.2901 73.28 99.0711 71.674 99.9621 70.486H98.7961C97.8501 71.608 96.9701 73.269 96.9701 75.557C96.9701 77.856 97.8501 79.506 98.7961 80.628ZM102.547 77.944H103.658V75.766H105.671V74.732H103.658V72.554H102.547V74.732H100.545V75.766H102.547V77.944ZM109.708 79.11C111.49 79.11 112.612 78.032 112.612 76.437C112.612 74.908 111.534 73.874 110.027 73.874C109.092 73.874 108.443 74.281 108.08 74.886C108.124 73.093 108.817 72.158 109.873 72.158C110.632 72.158 110.94 72.51 111.083 73.104H112.447C112.26 71.729 111.314 71.025 109.884 71.025C108.003 71.025 106.628 72.51 106.628 75.238V75.425C106.628 77.504 107.42 79.11 109.708 79.11ZM109.686 78.032C108.795 78.032 108.168 77.427 108.168 76.382C108.168 75.513 108.795 74.886 109.686 74.886C110.588 74.886 111.16 75.524 111.16 76.47C111.16 77.405 110.566 78.032 109.686 78.032ZM114.419 79.077C114.914 79.077 115.299 78.703 115.299 78.219C115.299 77.735 114.914 77.35 114.419 77.35C113.935 77.35 113.55 77.735 113.55 78.219C113.55 78.703 113.935 79.077 114.419 79.077ZM119.004 79.099C121.028 79.099 122.172 77.658 122.172 75.073V74.666C122.172 72.4 121.16 71.014 119.103 71.014C117.31 71.014 116.188 72.103 116.188 73.709C116.188 75.26 117.277 76.261 118.795 76.261C119.73 76.261 120.368 75.865 120.731 75.271C120.709 77.064 120.104 77.966 118.982 77.966C118.135 77.966 117.772 77.57 117.629 76.954H116.254C116.441 78.307 117.398 79.099 119.004 79.099ZM119.103 75.238C118.201 75.238 117.629 74.611 117.629 73.665C117.629 72.73 118.212 72.103 119.092 72.103C119.994 72.103 120.621 72.719 120.621 73.775C120.621 74.644 119.994 75.238 119.103 75.238ZM124.887 73.984C124.37 73.984 124.04 73.632 124.04 72.961C124.04 72.301 124.37 71.938 124.887 71.938C125.404 71.938 125.723 72.323 125.723 72.961C125.723 73.61 125.404 73.984 124.887 73.984ZM124.876 74.875C125.954 74.875 126.79 74.061 126.79 72.95C126.79 71.85 125.943 71.058 124.887 71.058C123.831 71.058 122.962 71.872 122.962 72.972C122.962 74.061 123.798 74.875 124.876 74.875ZM124.04 79H124.975L130.035 71.135H129.111L124.04 79ZM129.199 78.219C128.682 78.219 128.352 77.867 128.352 77.196C128.352 76.536 128.682 76.173 129.199 76.173C129.716 76.173 130.035 76.558 130.035 77.196C130.035 77.845 129.716 78.219 129.199 78.219ZM129.188 79.11C130.266 79.11 131.113 78.296 131.113 77.185C131.113 76.085 130.255 75.293 129.199 75.293C128.143 75.293 127.285 76.107 127.285 77.207C127.285 78.296 128.11 79.11 129.188 79.11ZM131.627 80.606H132.782C133.728 79.484 134.608 77.823 134.608 75.535C134.608 73.236 133.728 71.586 132.782 70.464H131.627C132.507 71.652 133.288 73.247 133.288 75.535C133.288 77.812 132.507 79.418 131.627 80.606Z" fill="#020D30"/>
<rect x="281" y="63" width="20" height="20" rx="6" fill="#ECF1FA"/>
<circle cx="32" cy="73" r="12" fill="#DBE5F4"/>
<path d="M23.621 76H26.519C28.112 76 28.859 75.361 28.859 74.209V74.173C28.859 73.282 28.364 72.805 27.572 72.67C28.292 72.481 28.661 72.004 28.661 71.284V71.248C28.661 70.249 28.013 69.565 26.492 69.565H23.621V76ZM25.421 74.767V73.246H26.132C26.78 73.246 27.041 73.498 27.041 73.984V74.02C27.041 74.497 26.771 74.767 26.186 74.767H25.421ZM25.421 72.121V70.789H26.123C26.681 70.789 26.915 70.987 26.915 71.428V71.464C26.915 71.923 26.699 72.121 26.123 72.121H25.421ZM30.8745 76H32.7285V70.987H34.3935V69.565H29.2095V70.987H30.8745V76ZM38.0005 76.108C39.6655 76.108 40.8715 75.244 40.9975 73.579H39.1615C39.0715 74.29 38.6125 74.632 37.9645 74.632C37.0825 74.632 36.5875 73.975 36.5875 72.814V72.742C36.5875 71.572 37.1095 70.924 37.9375 70.924C38.5855 70.924 38.9455 71.284 39.0175 71.941H40.9165C40.7635 70.24 39.6025 69.466 37.9285 69.466C36.0475 69.466 34.6435 70.771 34.6435 72.751V72.823C34.6435 74.794 35.7505 76.108 38.0005 76.108Z" fill="#020D30"/>
<path d="M295.576 96.4092L294.921 74.4089C294.896 73.5696 295.854 73.075 296.524 73.5816L314.257 86.9957C314.978 87.5411 314.663 88.6872 313.765 88.7871L304.972 89.7652C304.748 89.7901 304.539 89.8902 304.379 90.049L297.28 97.0894C296.659 97.7053 295.603 97.2835 295.576 96.4092Z" fill="#FFCF50"/>
<path fill-rule="evenodd" clip-rule="evenodd" d="M200 0C193.373 0 188 5.37258 188 12V41C188 47.6274 193.373 53 200 53H287.89C288.014 53.2618 288.159 53.51 288.325 53.7398L290.29 56.4526C291.585 58.2419 293.686 58.2419 294.982 56.4526L296.946 53.7398C297.113 53.5099 297.258 53.2618 297.381 53H302C308.627 53 314 47.6274 314 41V12C314 5.37258 308.627 0 302 0H200Z" fill="#020D30"/>
<path d="M205.2 31.16C207.728 31.16 209.408 29.608 209.408 27.624C209.408 25.336 208.016 24.568 205.328 24.2C203.344 23.912 202.96 23.448 202.96 22.52C202.96 21.64 203.632 21.016 204.928 21.016C206.24 21.016 206.928 21.528 207.136 22.728H209.088C208.864 20.536 207.392 19.416 204.928 19.416C202.544 19.416 200.944 20.824 200.944 22.696C200.944 24.84 202.24 25.672 204.976 26.04C206.832 26.344 207.36 26.744 207.36 27.8C207.36 28.856 206.464 29.56 205.2 29.56C203.264 29.56 202.8 28.6 202.656 27.448H200.608C200.768 29.608 202.08 31.16 205.2 31.16ZM214.988 31.16C217.132 31.16 218.556 30.2 218.828 28.44H216.956C216.812 29.256 216.204 29.72 215.036 29.72C213.596 29.72 212.796 28.824 212.732 27.24H218.86V26.68C218.86 23.688 216.988 22.456 214.908 22.456C212.524 22.456 210.748 24.184 210.748 26.776V26.904C210.748 29.544 212.524 31.16 214.988 31.16ZM212.764 25.944C212.956 24.648 213.74 23.864 214.908 23.864C216.108 23.864 216.844 24.504 216.94 25.944H212.764ZM224.27 31.16C226.414 31.16 227.838 30.2 228.11 28.44H226.238C226.094 29.256 225.486 29.72 224.318 29.72C222.878 29.72 222.078 28.824 222.014 27.24H228.142V26.68C228.142 23.688 226.27 22.456 224.19 22.456C221.806 22.456 220.03 24.184 220.03 26.776V26.904C220.03 29.544 221.806 31.16 224.27 31.16ZM222.046 25.944C222.238 24.648 223.022 23.864 224.19 23.864C225.39 23.864 226.126 24.504 226.222 25.944H222.046ZM235.875 31.16C237.155 31.16 237.891 30.696 238.435 29.976V31H240.339V25.512C240.339 23.224 238.867 22.456 236.995 22.456C235.123 22.456 233.571 23.272 233.411 25.224H235.283C235.379 24.392 235.875 23.912 236.883 23.912C238.019 23.912 238.403 24.472 238.403 25.592V26.024H237.363C234.963 26.024 233.075 26.728 233.075 28.68C233.075 30.424 234.339 31.16 235.875 31.16ZM236.339 29.768C235.379 29.768 234.995 29.304 234.995 28.6C234.995 27.576 235.939 27.24 237.411 27.24H238.403V28.072C238.403 29.144 237.523 29.768 236.339 29.768ZM242.606 31H244.542V18.76H242.606V31ZM246.95 31H248.886V18.76H246.95V31ZM257.25 31.16C258.53 31.16 259.266 30.696 259.81 29.976V31H261.714V25.512C261.714 23.224 260.242 22.456 258.37 22.456C256.498 22.456 254.946 23.272 254.786 25.224H256.658C256.754 24.392 257.25 23.912 258.258 23.912C259.394 23.912 259.778 24.472 259.778 25.592V26.024H258.738C256.338 26.024 254.45 26.728 254.45 28.68C254.45 30.424 255.714 31.16 257.25 31.16ZM257.714 29.768C256.754 29.768 256.37 29.304 256.37 28.6C256.37 27.576 257.314 27.24 258.786 27.24H259.778V28.072C259.778 29.144 258.898 29.768 257.714 29.768ZM266.797 31.16C268.941 31.16 270.141 30.184 270.141 28.488C270.141 26.712 268.973 26.232 267.005 25.928C265.677 25.704 265.277 25.464 265.277 24.856C265.277 24.264 265.773 23.864 266.605 23.864C267.501 23.864 267.933 24.216 268.093 24.984H269.885C269.677 23.096 268.317 22.456 266.605 22.456C265.037 22.456 263.469 23.288 263.469 24.968C263.469 26.536 264.285 27.16 266.493 27.512C267.725 27.72 268.285 27.976 268.285 28.664C268.285 29.368 267.821 29.736 266.781 29.736C265.645 29.736 265.213 29.24 265.117 28.392H263.293C263.373 30.168 264.637 31.16 266.797 31.16ZM274.704 31.16C276.848 31.16 278.048 30.184 278.048 28.488C278.048 26.712 276.88 26.232 274.911 25.928C273.584 25.704 273.184 25.464 273.184 24.856C273.184 24.264 273.68 23.864 274.512 23.864C275.408 23.864 275.84 24.216 276 24.984H277.792C277.584 23.096 276.224 22.456 274.512 22.456C272.944 22.456 271.376 23.288 271.376 24.968C271.376 26.536 272.192 27.16 274.4 27.512C275.632 27.72 276.192 27.976 276.192 28.664C276.192 29.368 275.728 29.736 274.688 29.736C273.552 29.736 273.12 29.24 273.024 28.392H271.2C271.28 30.168 272.544 31.16 274.704 31.16ZM283.426 31.16C285.57 31.16 286.994 30.2 287.266 28.44H285.394C285.25 29.256 284.642 29.72 283.474 29.72C282.034 29.72 281.234 28.824 281.17 27.24H287.298V26.68C287.298 23.688 285.426 22.456 283.346 22.456C280.962 22.456 279.186 24.184 279.186 26.776V26.904C279.186 29.544 280.962 31.16 283.426 31.16ZM281.202 25.944C281.394 24.648 282.178 23.864 283.346 23.864C284.546 23.864 285.282 24.504 285.378 25.944H281.202ZM291.875 31.144C292.467 31.144 292.883 31.048 293.187 30.936V29.4C292.915 29.512 292.627 29.56 292.243 29.56C291.635 29.56 291.283 29.224 291.283 28.488V24.088H293.123V22.632H291.283V20.792H289.347V22.632H288.227V24.088H289.347V28.664C289.347 30.248 290.211 31.144 291.875 31.144ZM297.875 31.16C300.019 31.16 301.219 30.184 301.219 28.488C301.219 26.712 300.051 26.232 298.083 25.928C296.755 25.704 296.355 25.464 296.355 24.856C296.355 24.264 296.851 23.864 297.683 23.864C298.579 23.864 299.011 24.216 299.171 24.984H300.963C300.755 23.096 299.395 22.456 297.683 22.456C296.115 22.456 294.547 23.288 294.547 24.968C294.547 26.536 295.363 27.16 297.571 27.512C298.803 27.72 299.363 27.976 299.363 28.664C299.363 29.368 298.899 29.736 297.859 29.736C296.723 29.736 296.291 29.24 296.195 28.392H294.371C294.451 30.168 295.715 31.16 297.875 31.16Z" fill="white"/>
</svg>
