<svg width="322" height="238" viewBox="0 0 322 238" fill="none" xmlns="http://www.w3.org/2000/svg">
<rect width="322" height="238" rx="19.6142" fill="white"/>
<path d="M34.5731 42.6904H42.9755V40.657H37.1245V28.9741H34.5731V42.6904ZM45.1391 42.6904H47.6905V37.4725H49.6089C52.544 37.4725 54.635 36.1872 54.635 33.2904V33.2137C54.635 30.3361 52.6207 28.9741 49.5513 28.9741H45.1391V42.6904ZM47.6905 35.6308V30.95H49.5513C51.1819 30.95 52.1411 31.5831 52.1411 33.2137V33.2904C52.1411 34.8059 51.2395 35.6308 49.5513 35.6308H47.6905ZM61.4002 42.6904H63.9517V37.4725H65.87C68.8051 37.4725 70.8961 36.1872 70.8961 33.2904V33.2137C70.8961 30.3361 68.8819 28.9741 65.8125 28.9741H61.4002V42.6904ZM63.9517 35.6308V30.95H65.8125C67.4431 30.95 68.4023 31.5831 68.4023 33.2137V33.2904C68.4023 34.8059 67.5006 35.6308 65.8125 35.6308H63.9517ZM77.0297 42.8823C79.6003 42.8823 81.3076 41.7312 81.6338 39.621H79.3893C79.2166 40.5994 78.4876 41.1557 77.0872 41.1557C75.3607 41.1557 74.4015 40.0814 74.3248 38.1823H81.6721V37.5108C81.6721 33.9235 79.4276 32.4463 76.9338 32.4463C74.0754 32.4463 71.946 34.5182 71.946 37.6259V37.7794C71.946 40.9447 74.0754 42.8823 77.0297 42.8823ZM74.3631 36.6284C74.5934 35.0745 75.5334 34.1345 76.9338 34.1345C78.3725 34.1345 79.255 34.9019 79.3701 36.6284H74.3631ZM83.7455 42.6904H86.0667V37.4725C86.0667 35.3431 87.2944 34.6908 89.3279 34.6717V32.5039C87.6397 32.5231 86.6997 33.2712 86.0667 34.5374V32.6574H83.7455V42.6904ZM91.9604 42.6904H94.2816V34.4031H96.5645V32.6574H94.2816V31.2186C94.2816 30.3553 94.6653 29.7414 95.6053 29.7414C96.0274 29.7414 96.3918 29.8182 96.6604 29.9141V28.1108C96.2384 27.9766 95.8931 27.919 95.3367 27.919C93.1882 27.919 91.9604 29.1084 91.9604 31.3145V32.6574H90.5984V34.4031H91.9604V42.6904ZM102.622 41.079C100.857 41.079 99.8406 39.7937 99.8406 37.741V37.5876C99.8406 35.5157 100.896 34.2688 102.622 34.2688C104.349 34.2688 105.385 35.5349 105.385 37.6068V37.741C105.385 39.7937 104.349 41.079 102.622 41.079ZM102.603 42.8823C105.557 42.8823 107.763 40.8488 107.763 37.7219V37.5684C107.763 34.499 105.557 32.4463 102.622 32.4463C99.6679 32.4463 97.4618 34.5182 97.4618 37.6259V37.7794C97.4618 40.8296 99.6487 42.8823 102.603 42.8823ZM109.861 42.6904H112.182V37.4725C112.182 35.3431 113.41 34.6908 115.443 34.6717V32.5039C113.755 32.5231 112.815 33.2712 112.182 34.5374V32.6574H109.861V42.6904ZM117.485 42.6904H119.807V36.6859C119.807 35.1512 120.862 34.3839 122.013 34.3839C123.145 34.3839 123.797 35.017 123.797 36.4941V42.6904H126.118V36.6859C126.118 35.1512 127.173 34.3839 128.324 34.3839C129.475 34.3839 130.108 35.017 130.108 36.4941V42.6904H132.43V36.3406C132.43 33.5782 130.933 32.4463 129.092 32.4463C127.845 32.4463 126.463 33.0027 125.696 34.2496C125.197 33.0027 124.161 32.4463 122.857 32.4463C121.38 32.4463 120.286 33.2521 119.807 34.1921V32.6574H117.485V42.6904ZM137.724 42.8823C139.258 42.8823 140.141 42.3259 140.793 41.4627V42.6904H143.076V36.1104C143.076 33.3672 141.311 32.4463 139.067 32.4463C136.822 32.4463 134.961 33.4247 134.769 35.7651H137.014C137.129 34.7676 137.724 34.1921 138.932 34.1921C140.294 34.1921 140.755 34.8635 140.755 36.2063V36.7243H139.508C136.63 36.7243 134.367 37.5684 134.367 39.9088C134.367 41.9998 135.882 42.8823 137.724 42.8823ZM138.28 41.2133C137.129 41.2133 136.669 40.657 136.669 39.8129C136.669 38.5851 137.8 38.1823 139.565 38.1823H140.755V39.1798C140.755 40.4651 139.7 41.2133 138.28 41.2133ZM145.736 42.6904H148.058V36.7819C148.058 35.1896 149.113 34.3839 150.417 34.3839C151.798 34.3839 152.412 35.0745 152.412 36.59V42.6904H154.734V36.379C154.734 33.6166 153.314 32.4463 151.3 32.4463C149.65 32.4463 148.537 33.2712 148.058 34.2496V32.6574H145.736V42.6904ZM161.801 42.8823C164.525 42.8823 166.271 41.2517 166.443 38.9496H164.314C164.18 40.3692 163.125 41.0982 161.897 41.0982C160.189 41.0982 159.115 39.9472 159.115 37.7602V37.6068C159.115 35.5349 160.247 34.3072 161.839 34.3072C163.067 34.3072 163.949 34.8635 164.141 36.2063H166.386C166.117 33.4439 164.026 32.4463 161.801 32.4463C159 32.4463 156.736 34.4606 156.736 37.6451V37.7986C156.736 41.0023 158.923 42.8823 161.801 42.8823ZM172.854 42.8823C175.425 42.8823 177.132 41.7312 177.458 39.621H175.214C175.041 40.5994 174.312 41.1557 172.912 41.1557C171.185 41.1557 170.226 40.0814 170.149 38.1823H177.497V37.5108C177.497 33.9235 175.252 32.4463 172.758 32.4463C169.9 32.4463 167.771 34.5182 167.771 37.6259V37.7794C167.771 40.9447 169.9 42.8823 172.854 42.8823ZM170.188 36.6284C170.418 35.0745 171.358 34.1345 172.758 34.1345C174.197 34.1345 175.08 34.9019 175.195 36.6284H170.188Z" fill="#020D30"/>
<rect x="33" y="163.355" width="40.8629" height="47.401" rx="9.80711" fill="#00BFFC"/>
<rect x="86.6299" y="111.051" width="40.8629" height="99.7056" rx="9.80711" fill="#00BFFC"/>
<rect x="140.568" y="147.01" width="40.8629" height="63.7462" rx="9.80711" fill="#00BFFC"/>
<rect x="194.508" y="130.665" width="40.8629" height="80.0914" rx="9.80711" fill="#00BFFC"/>
<rect x="248.447" y="97.9744" width="40.8629" height="112.782" rx="9.80711" fill="#0096FA"/>
<path fill-rule="evenodd" clip-rule="evenodd" d="M136.807 79.6143C131.391 79.6143 127 84.005 127 89.4214V128.807C127 134.223 131.391 138.614 136.807 138.614H252.193C257.609 138.614 262 134.223 262 128.807V120.01L269.318 112.692C271.233 110.777 271.233 107.672 269.318 105.757L262 98.4388V89.4214C262 84.005 257.609 79.6143 252.193 79.6143H136.807Z" fill="#020D30"/>
<path d="M147.117 114.417H149.117L150.013 111.585H154.381L155.293 114.417H157.501L153.725 102.977H150.941L147.117 114.417ZM152.205 104.721L153.885 110.033H150.509L152.205 104.721ZM162.066 114.577C163.298 114.577 164.37 113.841 164.818 113.009V114.417H166.754V102.177H164.818V107.329C164.354 106.497 163.506 105.873 162.146 105.873C159.97 105.873 158.386 107.569 158.386 110.241V110.369C158.386 113.089 159.97 114.577 162.066 114.577ZM162.546 113.041C161.298 113.041 160.37 112.161 160.37 110.321V110.193C160.37 108.385 161.202 107.393 162.626 107.393C164.034 107.393 164.882 108.305 164.882 110.145V110.273C164.882 112.145 163.89 113.041 162.546 113.041ZM172.191 114.577C173.423 114.577 174.495 113.841 174.943 113.009V114.417H176.879V102.177H174.943V107.329C174.479 106.497 173.631 105.873 172.271 105.873C170.095 105.873 168.511 107.569 168.511 110.241V110.369C168.511 113.089 170.095 114.577 172.191 114.577ZM172.671 113.041C171.423 113.041 170.495 112.161 170.495 110.321V110.193C170.495 108.385 171.327 107.393 172.751 107.393C174.159 107.393 175.007 108.305 175.007 110.145V110.273C175.007 112.145 174.015 113.041 172.671 113.041ZM183.041 114.417H184.977V102.177H183.041V114.417ZM187.385 114.417H189.321V106.049H187.385V114.417ZM188.329 104.673C188.969 104.673 189.481 104.193 189.481 103.569C189.481 102.929 188.969 102.449 188.329 102.449C187.689 102.449 187.177 102.929 187.177 103.569C187.177 104.193 187.689 104.673 188.329 104.673ZM197.568 117.281H199.504V106.049H197.568V107.329C197.104 106.497 196.256 105.873 194.896 105.873C192.72 105.873 191.136 107.569 191.136 110.241V110.369C191.136 113.089 192.72 114.577 194.816 114.577C196.048 114.577 197.12 113.841 197.568 113.041V117.281ZM195.296 113.041C194.048 113.041 193.12 112.161 193.12 110.321V110.193C193.12 108.385 193.952 107.393 195.376 107.393C196.784 107.393 197.632 108.305 197.632 110.145V110.273C197.632 112.145 196.64 113.041 195.296 113.041ZM204.605 114.577C205.965 114.577 206.845 113.921 207.261 113.105V114.417H209.197V106.049H207.261V111.025C207.261 112.353 206.349 113.025 205.309 113.025C204.189 113.025 203.661 112.449 203.661 111.185V106.049H201.725V111.409C201.725 113.633 202.957 114.577 204.605 114.577ZM211.541 114.417H213.477V106.049H211.541V114.417ZM212.485 104.673C213.125 104.673 213.637 104.193 213.637 103.569C213.637 102.929 213.125 102.449 212.485 102.449C211.845 102.449 211.333 102.929 211.333 103.569C211.333 104.193 211.845 104.673 212.485 104.673ZM218.973 114.577C220.205 114.577 221.277 113.841 221.725 113.009V114.417H223.661V102.177H221.725V107.329C221.261 106.497 220.413 105.873 219.053 105.873C216.877 105.873 215.293 107.569 215.293 110.241V110.369C215.293 113.089 216.877 114.577 218.973 114.577ZM219.453 113.041C218.205 113.041 217.277 112.161 217.277 110.321V110.193C217.277 108.385 218.109 107.393 219.533 107.393C220.941 107.393 221.789 108.305 221.789 110.145V110.273C221.789 112.145 220.797 113.041 219.453 113.041ZM226.01 114.417H227.946V106.049H226.01V114.417ZM226.954 104.673C227.594 104.673 228.106 104.193 228.106 103.569C228.106 102.929 227.594 102.449 226.954 102.449C226.314 102.449 225.802 102.929 225.802 103.569C225.802 104.193 226.314 104.673 226.954 104.673ZM233.153 114.561C233.745 114.561 234.161 114.465 234.465 114.353V112.817C234.193 112.929 233.905 112.977 233.521 112.977C232.913 112.977 232.561 112.641 232.561 111.905V107.505H234.401V106.049H232.561V104.209H230.625V106.049H229.505V107.505H230.625V112.081C230.625 113.665 231.489 114.561 233.153 114.561ZM237.14 117.281H239.044L243.604 106.049H241.716L239.668 111.441L237.444 106.049H235.348L238.66 113.569L237.14 117.281Z" fill="white"/>
<path d="M278.493 136.245L274.351 114.628C274.193 113.803 275.061 113.163 275.803 113.556L295.442 123.983C296.24 124.407 296.111 125.589 295.24 125.83L286.714 128.193C286.497 128.253 286.306 128.385 286.173 128.567L280.283 136.646C279.768 137.352 278.658 137.104 278.493 136.245Z" fill="#FFCF50"/>
</svg>
