<svg width="695" height="653" viewBox="0 0 695 653" fill="none" xmlns="http://www.w3.org/2000/svg">
<g filter="url(#filter0_dd_344_743)">
<rect x="179.684" y="319.713" width="321.901" height="203.414" rx="10.8487" transform="rotate(-30.6726 179.684 319.713)" fill="#00BFFC"/>
<path d="M184.892 328.548C181.846 323.382 183.568 316.725 188.738 313.685L286.712 256.069L390.625 431.267L292.652 489.794C287.487 492.879 280.799 491.173 277.743 485.991L184.892 328.548Z" fill="white"/>
<rect x="270.164" y="398.814" width="7.55037" height="26.8793" rx="0.60403" transform="rotate(-30.4585 270.164 398.814)" fill="#2ECCFF"/>
<rect x="304.269" y="378.758" width="7.55037" height="26.8793" rx="0.60403" transform="rotate(-30.4585 304.269 378.758)" fill="#2ECCFF"/>
<rect x="287.085" y="388.863" width="7.55037" height="26.8793" rx="0.60403" transform="rotate(-30.4585 287.085 388.863)" fill="#2ECCFF"/>
<rect x="292.825" y="420.668" width="29.8995" height="34.7317" rx="0.60403" transform="rotate(-30.4585 292.825 420.668)" fill="#2ECCFF"/>
<rect x="285.735" y="425.888" width="7.55037" height="34.7317" rx="0.60403" transform="rotate(-30.4585 285.735 425.888)" fill="#2ECCFF"/>
<rect x="320.1" y="405.68" width="7.55037" height="34.7317" rx="0.60403" transform="rotate(-30.4585 320.1 405.68)" fill="#2ECCFF"/>
<path d="M283.481 375.939L280.562 385.904C280.385 386.508 281.039 387.018 281.582 386.698L294.957 378.833C295.51 378.508 295.366 377.672 294.737 377.551L284.175 375.516C283.869 375.457 283.569 375.64 283.481 375.939Z" fill="#00ACE3"/>
<path d="M295.098 372.104L297.951 376.955C298.12 377.242 298.49 377.338 298.778 377.169L311.99 369.4C312.572 369.058 312.24 368.164 311.576 368.285L295.511 371.203C295.097 371.278 294.885 371.741 295.098 372.104Z" fill="#00ACE3"/>
<path d="M275.573 383.586L278.426 388.437C278.595 388.725 278.499 389.095 278.212 389.264L265 397.034C264.418 397.376 263.798 396.651 264.226 396.13L274.586 383.509C274.852 383.184 275.36 383.224 275.573 383.586Z" fill="#00ACE3"/>
<rect x="284.742" y="390.24" width="3.62418" height="26.8793" rx="0.60403" transform="rotate(-30.4585 284.742 390.24)" fill="#00BFFC"/>
<rect x="268.081" y="400.038" width="3.62418" height="26.8793" rx="0.60403" transform="rotate(-30.4585 268.081 400.038)" fill="#00BFFC"/>
<rect x="301.924" y="380.136" width="3.62418" height="26.8793" rx="0.60403" transform="rotate(-30.4585 301.924 380.136)" fill="#00BFFC"/>
<rect x="293.312" y="385.201" width="3.62418" height="26.8793" rx="0.60403" transform="rotate(-30.4585 293.312 385.201)" fill="#00BFFC"/>
<rect x="276.15" y="395.292" width="3.62418" height="26.8793" rx="0.60403" transform="rotate(-30.4585 276.15 395.292)" fill="#00BFFC"/>
<rect x="309.995" y="375.39" width="3.62418" height="26.8793" rx="0.60403" transform="rotate(-30.4585 309.995 375.39)" fill="#00BFFC"/>
<rect x="263.915" y="396.531" width="16.6108" height="6.0403" rx="0.60403" transform="rotate(-30.4585 263.915 396.531)" fill="#00BFFC"/>
<path d="M280.772 386.501L295.251 377.987L298.174 382.958C298.343 383.246 298.247 383.616 297.96 383.785L284.523 391.687C284.235 391.856 283.865 391.76 283.696 391.473L280.772 386.501Z" fill="#00BFFC"/>
<rect x="297.759" y="376.629" width="16.6108" height="6.0403" rx="0.60403" transform="rotate(-30.4585 297.759 376.629)" fill="#00BFFC"/>
<rect x="291.524" y="421.433" width="33.5237" height="6.0403" rx="0.60403" transform="rotate(-30.4585 291.524 421.433)" fill="#2ECCFF"/>
<rect x="300.114" y="416.381" width="3.62418" height="34.7317" rx="0.60403" transform="rotate(-30.4585 300.114 416.381)" fill="#F89CA2"/>
<rect x="317.296" y="406.277" width="3.62418" height="34.7317" rx="0.60403" transform="rotate(-30.4585 317.296 406.277)" fill="#00BFFC"/>
<rect x="283.912" y="426.96" width="3.62418" height="34.7317" rx="0.60403" transform="rotate(-30.4585 283.912 426.96)" fill="#00BFFC"/>
<rect x="291.524" y="421.433" width="3.62418" height="34.7317" rx="0.60403" transform="rotate(-30.4585 291.524 421.433)" fill="#00BFFC"/>
<rect x="308.186" y="411.635" width="3.62418" height="34.7317" rx="0.60403" transform="rotate(-30.4585 308.186 411.635)" fill="#F89CA2"/>
<rect x="325.826" y="402.312" width="3.62418" height="34.7317" rx="0.60403" transform="rotate(-30.4585 325.826 402.312)" fill="#00BFFC"/>
<rect x="300.904" y="417.723" width="12.9866" height="33.1747" rx="0.60403" transform="rotate(-30.4585 300.904 417.723)" fill="#00ACE3"/>
<rect x="298.042" y="457.542" width="58.8929" height="6.0403" rx="0.60403" transform="rotate(-30.4585 298.042 457.542)" fill="#00BFFC"/>
<rect x="278.268" y="423.915" width="58.8929" height="6.0403" rx="0.60403" transform="rotate(-30.4585 278.268 423.915)" fill="#00BFFC"/>
<path d="M303.789 409.201L295.396 420.313C294.998 420.841 295.614 421.533 296.184 421.198L317.973 408.385C318.539 408.052 318.242 407.182 317.59 407.265L304.195 408.966C304.034 408.986 303.887 409.071 303.789 409.201Z" fill="#2ECCFF"/>
<mask id="path-32-inside-1_344_743" fill="white">
<path fill-rule="evenodd" clip-rule="evenodd" d="M219.858 327.563C220.123 328.322 220.157 329.142 219.955 329.92L217.947 329.4C218.141 328.835 218.096 328.191 217.767 327.636C217.172 326.634 215.878 326.304 214.876 326.898C213.874 327.492 213.543 328.787 214.138 329.789C214.455 330.323 214.971 330.667 215.535 330.781L215.003 332.835C214.225 332.634 213.525 332.206 212.99 331.607C212.455 331.007 212.11 330.262 211.998 329.466C211.886 328.67 212.013 327.859 212.362 327.136C212.712 326.412 213.268 325.808 213.96 325.4C214.653 324.993 215.451 324.799 216.253 324.845C217.055 324.891 217.826 325.173 218.468 325.657C219.109 326.141 219.593 326.804 219.858 327.563Z"/>
</mask>
<path fill-rule="evenodd" clip-rule="evenodd" d="M219.858 327.563C220.123 328.322 220.157 329.142 219.955 329.92L217.947 329.4C218.141 328.835 218.096 328.191 217.767 327.636C217.172 326.634 215.878 326.304 214.876 326.898C213.874 327.492 213.543 328.787 214.138 329.789C214.455 330.323 214.971 330.667 215.535 330.781L215.003 332.835C214.225 332.634 213.525 332.206 212.99 331.607C212.455 331.007 212.11 330.262 211.998 329.466C211.886 328.67 212.013 327.859 212.362 327.136C212.712 326.412 213.268 325.808 213.96 325.4C214.653 324.993 215.451 324.799 216.253 324.845C217.055 324.891 217.826 325.173 218.468 325.657C219.109 326.141 219.593 326.804 219.858 327.563Z" fill="#F89CA2"/>
<path d="M219.955 329.92L219.485 331.735L221.301 332.205L221.771 330.39L219.955 329.92ZM219.858 327.563L218.087 328.181L218.087 328.181L219.858 327.563ZM217.947 329.4L216.174 328.79L215.514 330.707L217.477 331.216L217.947 329.4ZM215.535 330.781L217.351 331.251L217.847 329.334L215.906 328.943L215.535 330.781ZM215.003 332.835L214.533 334.651L216.349 335.121L216.819 333.305L215.003 332.835ZM212.99 331.607L214.389 330.358L212.99 331.607ZM211.998 329.466L213.855 329.206L211.998 329.466ZM212.362 327.136L210.673 326.321L210.673 326.321L212.362 327.136ZM213.96 325.4L213.009 323.784L213.96 325.4ZM218.468 325.657L217.339 327.155L217.339 327.155L218.468 325.657ZM221.771 330.39C222.065 329.253 222.016 328.054 221.629 326.945L218.087 328.181C218.23 328.589 218.248 329.031 218.14 329.45L221.771 330.39ZM217.477 331.216L219.485 331.735L220.425 328.104L218.417 327.585L217.477 331.216ZM216.154 328.593C216.19 328.654 216.197 328.723 216.174 328.79L219.72 330.01C220.086 328.947 220.001 327.728 219.38 326.68L216.154 328.593ZM215.833 328.511C215.944 328.445 216.088 328.482 216.154 328.593L219.38 326.68C218.257 324.787 215.812 324.162 213.919 325.285L215.833 328.511ZM215.751 328.832C215.685 328.721 215.721 328.577 215.833 328.511L213.919 325.285C212.026 326.408 211.402 328.853 212.525 330.746L215.751 328.832ZM215.906 328.943C215.84 328.929 215.786 328.892 215.751 328.832L212.525 330.746C213.123 331.755 214.101 332.404 215.164 332.619L215.906 328.943ZM216.819 333.305L217.351 331.251L213.72 330.311L213.188 332.365L216.819 333.305ZM211.59 332.855C212.372 333.732 213.396 334.356 214.533 334.651L215.473 331.02C215.054 330.911 214.677 330.681 214.389 330.358L211.59 332.855ZM210.141 329.727C210.304 330.89 210.808 331.979 211.59 332.855L214.389 330.358C214.101 330.035 213.915 329.634 213.855 329.206L210.141 329.727ZM210.673 326.321C210.163 327.378 209.977 328.564 210.141 329.727L213.855 329.206C213.795 328.777 213.863 328.34 214.051 327.951L210.673 326.321ZM213.009 323.784C211.997 324.38 211.184 325.263 210.673 326.321L214.051 327.951C214.239 327.561 214.539 327.236 214.912 327.016L213.009 323.784ZM216.36 322.973C215.187 322.906 214.021 323.188 213.009 323.784L214.912 327.016C215.285 326.797 215.714 326.693 216.146 326.717L216.36 322.973ZM219.597 324.16C218.659 323.453 217.532 323.04 216.36 322.973L216.146 326.717C216.578 326.742 216.993 326.894 217.339 327.155L219.597 324.16ZM221.629 326.945C221.242 325.836 220.534 324.867 219.597 324.16L217.339 327.155C217.684 327.415 217.945 327.772 218.087 328.181L221.629 326.945Z" fill="#F89CA2" mask="url(#path-32-inside-1_344_743)"/>
<path fill-rule="evenodd" clip-rule="evenodd" d="M209.997 326.381C209.952 326.5 209.91 326.62 209.872 326.741L208.055 326.277C208.184 325.841 208.351 325.414 208.554 325.002C209.254 323.582 210.36 322.402 211.732 321.61C213.103 320.819 214.678 320.452 216.258 320.556C216.697 320.584 217.13 320.649 217.554 320.748L217.1 322.525C215.625 322.209 214.032 322.426 212.633 323.256C211.599 323.862 210.766 324.757 210.236 325.832C210.147 326.011 210.068 326.194 209.997 326.381ZM218.224 322.88C219.403 323.379 220.44 324.245 221.143 325.431C222.027 326.921 222.216 328.63 221.807 330.183L223.466 330.617C223.474 330.587 223.482 330.557 223.49 330.526C223.639 329.942 223.721 329.347 223.736 328.75C223.761 327.811 223.62 326.871 223.315 325.972C222.806 324.473 221.864 323.158 220.608 322.194C220.016 321.739 219.366 321.372 218.679 321.1L218.224 322.88ZM207.806 327.429L209.628 327.894C209.478 329.195 209.737 330.555 210.457 331.769C211.311 333.209 212.657 334.179 214.154 334.59L213.66 336.277C213.541 336.245 213.423 336.21 213.306 336.173C212.821 336.019 212.354 335.819 211.911 335.578C211.085 335.129 210.34 334.536 209.713 333.822C208.67 332.631 208.002 331.158 207.796 329.588C207.701 328.867 207.706 328.141 207.806 327.429Z" fill="#F89CA2"/>
<path fill-rule="evenodd" clip-rule="evenodd" d="M216.615 337.091C217.064 335.867 217.905 334.803 219.077 334.108C220.234 333.422 221.552 333.191 222.826 333.371L222.882 333.337L223.338 331.552C221.592 331.246 219.751 331.528 218.12 332.495C216.488 333.463 215.358 334.944 214.79 336.624L216.615 337.091Z" fill="#F89CA2"/>
<path d="M318.924 273.501L320.257 272.71L318.244 269.315C317.701 268.4 318.033 267.577 318.782 267.133C319.576 266.662 320.164 266.85 320.681 267.72L322.76 271.226L324.093 270.435L321.943 266.808C321.001 265.221 319.787 265.032 318.629 265.719C317.681 266.281 317.323 267.134 317.381 267.86L315.256 264.277L313.922 265.068L318.924 273.501ZM327.205 268.738C328.087 268.215 328.405 267.594 328.485 266.876L328.904 267.582L330.215 266.804L327.973 263.023C327.038 261.447 325.71 261.519 324.421 262.284C323.131 263.049 322.395 264.245 323.082 265.655L324.372 264.89C324.098 264.278 324.244 263.745 324.938 263.333C325.721 262.869 326.214 263.097 326.672 263.869L326.848 264.167L326.132 264.592C324.479 265.572 323.466 266.829 324.263 268.173C324.976 269.375 326.147 269.365 327.205 268.738ZM326.956 267.589C326.295 267.982 325.841 267.819 325.553 267.334C325.135 266.628 325.648 266.011 326.662 265.41L327.345 265.004L327.685 265.578C328.123 266.316 327.772 267.106 326.956 267.589ZM331.744 265.897L333.078 265.106L331.064 261.711C330.522 260.796 330.853 259.974 331.603 259.529C332.396 259.058 332.985 259.246 333.501 260.117L335.58 263.622L336.914 262.831L334.763 259.204C333.821 257.617 332.607 257.428 331.45 258.115C330.502 258.677 330.143 259.53 330.201 260.256L329.659 259.341L328.325 260.132L331.744 265.897ZM338.45 261.919L339.784 261.128L337.77 257.733C337.228 256.819 337.559 255.996 338.309 255.551C339.103 255.081 339.691 255.268 340.207 256.139L342.286 259.644L343.62 258.853L341.469 255.227C340.528 253.64 339.313 253.451 338.156 254.137C337.208 254.7 336.85 255.553 336.907 256.278L336.365 255.364L335.031 256.155L338.45 261.919ZM346.732 257.157C347.614 256.634 347.931 256.013 348.012 255.295L348.43 256L349.742 255.222L347.499 251.442C346.565 249.865 345.237 249.938 343.947 250.703C342.657 251.467 341.922 252.664 342.609 254.074L343.899 253.309C343.625 252.697 343.77 252.163 344.465 251.751C345.247 251.287 345.741 251.516 346.198 252.288L346.375 252.585L345.658 253.01C344.005 253.991 342.992 255.247 343.79 256.592C344.502 257.794 345.674 257.784 346.732 257.157ZM346.483 256.008C345.821 256.4 345.367 256.237 345.08 255.752C344.661 255.047 345.174 254.43 346.188 253.828L346.872 253.423L347.212 253.996C347.65 254.735 347.299 255.524 346.483 256.008ZM351.271 254.316L352.604 253.525L350.591 250.13C350.048 249.215 350.38 248.392 351.129 247.948C351.923 247.477 352.511 247.664 353.028 248.535L355.107 252.04L356.44 251.249L354.289 247.623C353.348 246.036 352.133 245.847 350.976 246.534C350.028 247.096 349.67 247.949 349.728 248.675L347.603 245.092L346.269 245.883L351.271 254.316ZM358.816 249.945C359.312 249.65 359.476 249.047 359.188 248.562C358.9 248.077 358.286 247.92 357.79 248.214C357.305 248.502 357.148 249.116 357.435 249.601C357.723 250.086 358.331 250.232 358.816 249.945ZM361.578 248.202L362.945 247.391L361.812 242.818L365.183 246.064L366.539 245.26L364.927 238.423L363.627 239.194L364.896 244.074L361.301 240.574L360.187 241.234L361.435 246.126L357.818 242.64L356.396 243.483L361.578 248.202ZM371.36 242.55C372.297 241.994 372.635 241.182 372.588 240.45L373.124 241.354L374.458 240.563L371.039 234.798L369.705 235.589L371.738 239.017C372.281 239.932 371.927 240.768 371.211 241.193C370.439 241.65 369.84 241.469 369.324 240.598L367.225 237.06L365.891 237.851L368.081 241.544C368.99 243.076 370.224 243.223 371.36 242.55ZM376.039 239.625L377.373 238.834L375.36 235.439C374.817 234.524 375.149 233.702 375.898 233.257C376.692 232.786 377.28 232.974 377.796 233.845L379.875 237.35L381.209 236.559L379.058 232.932C378.117 231.345 376.902 231.157 375.745 231.843C374.797 232.405 374.439 233.258 374.497 233.984L373.954 233.069L372.62 233.86L376.039 239.625ZM384.971 234.476C385.82 233.973 386.258 233.028 386.227 232.272L386.802 233.242L388.136 232.451L383.134 224.018L381.801 224.809L383.906 228.359C383.246 227.975 382.407 227.892 381.47 228.447C379.971 229.336 379.573 231.152 380.664 232.993L380.717 233.081C381.828 234.955 383.527 235.333 384.971 234.476ZM384.674 233.222C383.815 233.732 382.816 233.505 382.064 232.237L382.012 232.149C381.273 230.904 381.441 229.88 382.422 229.298C383.392 228.723 384.349 229.005 385.1 230.272L385.153 230.361C385.918 231.65 385.6 232.673 384.674 233.222ZM392.321 230.117C393.798 229.241 394.387 227.998 393.855 226.674L392.566 227.439C392.8 228.06 392.571 228.628 391.766 229.105C390.774 229.694 389.857 229.403 389.166 228.338L393.387 225.834L393.158 225.449C391.936 223.387 390.143 223.303 388.71 224.153C387.067 225.127 386.55 227.044 387.609 228.829L387.661 228.917C388.74 230.736 390.624 231.124 392.321 230.117ZM388.658 227.432C388.261 226.461 388.481 225.601 389.285 225.123C390.112 224.633 390.88 224.773 391.535 225.726L388.658 227.432ZM396.115 227.718L397.449 226.927L395.67 223.929C394.945 222.705 395.428 221.912 396.59 221.208L395.851 219.963C394.888 220.549 394.602 221.299 394.67 222.242L394.029 221.162L392.696 221.953L396.115 227.718ZM401.666 227.093L403 226.302L401.294 223.425C401.936 223.804 402.865 223.863 403.78 223.321C405.268 222.438 405.67 220.68 404.572 218.828L404.52 218.74C403.415 216.877 401.667 216.468 400.223 217.324C399.375 217.828 398.952 218.749 398.96 219.49L398.411 218.564L397.077 219.355L401.666 227.093ZM402.822 222.459C401.852 223.034 400.864 222.8 400.099 221.511L400.047 221.423C399.288 220.144 399.577 219.123 400.503 218.574C401.374 218.058 402.408 218.294 403.166 219.572L403.218 219.661C403.951 220.895 403.803 221.877 402.822 222.459ZM409.047 220.197C409.929 219.674 410.246 219.054 410.327 218.335L410.745 219.041L412.057 218.263L409.814 214.482C408.879 212.906 407.552 212.978 406.262 213.743C404.972 214.508 404.236 215.704 404.924 217.114L406.213 216.35C405.94 215.737 406.085 215.204 406.78 214.792C407.562 214.328 408.056 214.557 408.513 215.328L408.69 215.626L407.973 216.051C406.32 217.031 405.307 218.288 406.104 219.633C406.817 220.834 407.989 220.825 409.047 220.197ZM408.798 219.048C408.136 219.441 407.682 219.278 407.394 218.793C406.976 218.088 407.489 217.47 408.503 216.869L409.187 216.464L409.527 217.037C409.965 217.775 409.613 218.565 408.798 219.048ZM415.624 216.296C417.101 215.42 417.529 214.257 416.836 213.089C416.11 211.865 415.109 212.012 413.629 212.607C412.623 212.995 412.249 212.993 412.001 212.574C411.759 212.166 411.937 211.688 412.51 211.348C413.128 210.982 413.569 211.048 413.993 211.512L415.228 210.78C414.313 209.564 413.115 209.679 411.935 210.378C410.855 211.019 410.115 212.233 410.801 213.39C411.442 214.47 412.259 214.567 413.924 213.907C414.858 213.547 415.348 213.495 415.629 213.969C415.917 214.454 415.747 214.897 415.031 215.322C414.248 215.786 413.748 215.621 413.335 215.076L412.079 215.821C412.86 217.012 414.136 217.179 415.624 216.296ZM421.071 213.066C422.548 212.19 422.976 211.027 422.283 209.858C421.557 208.635 420.556 208.781 419.076 209.376C418.07 209.764 417.696 209.763 417.448 209.344C417.206 208.936 417.384 208.458 417.957 208.118C418.574 207.752 419.016 207.818 419.44 208.281L420.674 207.549C419.76 206.333 418.561 206.448 417.382 207.148C416.302 207.788 415.561 209.002 416.248 210.16C416.889 211.24 417.706 211.336 419.371 210.677C420.304 210.317 420.795 210.264 421.076 210.738C421.364 211.223 421.194 211.666 420.478 212.091C419.695 212.555 419.195 212.39 418.782 211.845L417.526 212.59C418.306 213.781 419.583 213.948 421.071 213.066Z" fill="white"/>
<path d="M236.006 322.255L237.406 321.425L235.598 314.734L240.558 319.555L242.024 318.685L239.323 309.634L237.956 310.445L239.997 317.101L234.98 312.21L233.767 312.929L235.667 319.625L230.868 314.648L229.369 315.538L236.006 322.255ZM245.188 316.809L246.654 315.939L244.876 312.941L245.979 312.287C247.665 311.287 248.428 309.836 247.441 308.171L247.415 308.127C246.434 306.474 244.813 306.378 243.049 307.424L240.514 308.927L245.188 316.809ZM244.249 311.883L242.653 309.193L243.723 308.559C244.66 308.003 245.426 308.04 245.982 308.977L246.008 309.021C246.525 309.892 246.288 310.673 245.318 311.249L244.249 311.883ZM254.576 311.241L256.053 310.365L251.379 302.484L249.902 303.36L254.576 311.241ZM258.691 307.235L255.39 301.669L256.239 301.166C258.091 300.067 259.47 300.635 260.477 302.332L260.529 302.42C261.562 304.162 261.315 305.679 259.551 306.725L258.691 307.235ZM257.912 309.262L260.282 307.857C263.048 306.216 263.415 303.793 262.055 301.501L261.996 301.401C260.636 299.109 258.374 298.334 255.629 299.962L253.237 301.381L257.912 309.262Z" fill="#F89CA2"/>
<path d="M327.89 289.07L331.381 287L330.88 286.155L328.449 287.597L325.57 282.743L324.51 283.372L327.89 289.07ZM333.59 284.784C332.857 285.219 332.118 284.936 331.612 284.083L331.574 284.019C331.064 283.159 331.195 282.38 331.912 281.955C332.629 281.53 333.372 281.8 333.882 282.661L333.915 282.717C334.421 283.57 334.308 284.359 333.59 284.784ZM334.027 285.538C335.254 284.81 335.67 283.422 334.899 282.123L334.861 282.059C334.105 280.784 332.682 280.475 331.463 281.198C330.235 281.926 329.829 283.33 330.595 284.621L330.633 284.685C331.385 285.953 332.799 286.266 334.027 285.538ZM336.995 283.67L337.959 283.098L336.503 280.643C336.111 279.982 336.351 279.387 336.893 279.066C337.466 278.725 337.892 278.861 338.265 279.491L339.768 282.025L340.733 281.453L339.178 278.831C338.497 277.683 337.619 277.547 336.782 278.043C336.096 278.45 335.837 279.067 335.879 279.591L335.487 278.93L334.522 279.502L336.995 283.67ZM343.453 279.947C344.067 279.583 344.384 278.9 344.361 278.353L344.777 279.054L345.741 278.482L342.125 272.385L341.161 272.957L342.683 275.524C342.206 275.246 341.599 275.186 340.922 275.588C339.838 276.231 339.55 277.544 340.339 278.875L340.377 278.938C341.181 280.293 342.409 280.567 343.453 279.947ZM343.239 279.04C342.617 279.409 341.895 279.245 341.351 278.328L341.313 278.264C340.779 277.364 340.9 276.624 341.61 276.203C342.311 275.787 343.003 275.991 343.547 276.907L343.585 276.971C344.138 277.904 343.908 278.643 343.239 279.04ZM348.356 276.027C347.622 276.462 346.883 276.178 346.377 275.326L346.34 275.262C345.829 274.401 345.96 273.623 346.677 273.197C347.395 272.772 348.137 273.043 348.648 273.904L348.681 273.959C349.187 274.812 349.073 275.601 348.356 276.027ZM348.792 276.781C350.02 276.053 350.435 274.664 349.664 273.365L349.627 273.301C348.87 272.026 347.448 271.717 346.228 272.44C345.001 273.168 344.595 274.573 345.361 275.864L345.399 275.928C346.15 277.195 347.565 277.509 348.792 276.781ZM351.76 274.913L352.725 274.341L351.269 271.886C350.876 271.224 351.116 270.629 351.658 270.308C352.232 269.968 352.657 270.103 353.031 270.733L354.534 273.268L355.498 272.696L353.943 270.073C353.262 268.926 352.384 268.789 351.547 269.286C350.862 269.692 350.603 270.309 350.645 270.834L350.252 270.172L349.288 270.744L351.76 274.913ZM357.438 272.87L357.423 270.466L356.289 270.643L356.684 272.962L357.438 272.87ZM363.155 268.262C364.661 267.369 364.979 266.07 364.095 264.58L362.039 261.113L360.971 261.746L362.975 265.126C363.675 266.305 363.478 266.918 362.657 267.405C361.812 267.906 361.222 267.674 360.603 266.63L358.556 263.179L357.488 263.812L359.582 267.343C360.452 268.809 361.728 269.108 363.155 268.262ZM366.676 266.066L367.736 265.438L366.157 262.775L369.927 264.138L371.179 263.395L366.932 261.885L367.674 257.759L366.535 258.435L365.887 262.321L364.356 259.739L363.295 260.367L366.676 266.066Z" fill="white"/>
<path d="M396.613 405.933L400.312 403.74L399.815 402.903L397.177 404.467L396.189 402.802L398.198 401.61L397.725 400.813L395.716 402.005L394.79 400.442L397.292 398.958L396.796 398.121L393.233 400.234L396.613 405.933ZM402.798 402.373C403.411 402.009 403.728 401.325 403.705 400.779L404.121 401.48L405.086 400.908L401.469 394.811L400.505 395.383L402.027 397.949C401.55 397.672 400.943 397.611 400.266 398.013C399.182 398.656 398.894 399.969 399.683 401.3L399.721 401.364C400.525 402.719 401.754 402.992 402.798 402.373ZM402.583 401.466C401.961 401.835 401.239 401.67 400.695 400.754L400.658 400.69C400.123 399.789 400.245 399.049 400.954 398.629C401.655 398.213 402.347 398.416 402.891 399.333L402.929 399.397C403.482 400.329 403.252 401.069 402.583 401.466ZM406.256 400.214L407.22 399.642L404.748 395.473L403.783 396.045L406.256 400.214ZM403.847 395.081C404.166 394.892 404.279 394.502 404.095 394.191C403.906 393.872 403.509 393.784 403.19 393.973C402.871 394.162 402.758 394.553 402.947 394.871C403.131 395.182 403.528 395.27 403.847 395.081ZM409.857 398.175C410.152 398 410.331 397.829 410.449 397.684L409.995 396.919C409.893 397.055 409.764 397.164 409.572 397.277C409.27 397.457 408.995 397.393 408.777 397.027L407.477 394.835L408.394 394.291L407.964 393.566L407.047 394.11L406.504 393.193L405.539 393.765L406.083 394.682L405.525 395.013L405.955 395.738L406.513 395.407L407.865 397.687C408.333 398.476 409.028 398.667 409.857 398.175ZM411.362 397.185L412.326 396.613L409.854 392.445L408.89 393.017L411.362 397.185ZM408.953 392.053C409.272 391.864 409.385 391.473 409.201 391.162C409.012 390.843 408.615 390.756 408.296 390.945C407.977 391.134 407.864 391.524 408.053 391.843C408.238 392.154 408.634 392.242 408.953 392.053ZM414.97 394.141C414.237 394.575 413.497 394.292 412.992 393.439L412.954 393.375C412.443 392.515 412.574 391.737 413.292 391.311C414.009 390.886 414.751 391.156 415.262 392.017L415.295 392.073C415.801 392.926 415.687 393.715 414.97 394.141ZM415.406 394.895C416.634 394.167 417.049 392.778 416.279 391.479L416.241 391.415C415.484 390.14 414.062 389.831 412.843 390.554C411.615 391.282 411.209 392.686 411.975 393.978L412.013 394.041C412.764 395.309 414.179 395.623 415.406 394.895ZM418.374 393.026L419.339 392.454L417.883 389.999C417.49 389.338 417.73 388.743 418.272 388.422C418.846 388.081 419.271 388.217 419.645 388.847L421.148 391.381L422.113 390.809L420.557 388.187C419.876 387.039 418.998 386.903 418.161 387.399C417.476 387.806 417.217 388.423 417.259 388.947L416.866 388.286L415.902 388.858L418.374 393.026ZM426.916 388.068C428.143 387.34 428.563 386.068 427.849 384.864C427.14 383.669 425.989 383.382 424.961 383.991C424.355 384.351 424.089 384.81 424.017 385.198L423.108 383.647L425.754 382.077L425.258 381.24L421.799 383.292L423.632 386.492L424.174 386.171C424.254 385.725 424.487 385.318 425.069 384.972C425.698 384.599 426.357 384.801 426.763 385.486C427.179 386.188 427.074 386.864 426.421 387.252C425.687 387.687 425.255 387.448 424.855 386.974L423.867 387.56C424.512 388.503 425.577 388.862 426.916 388.068ZM431.829 385.154C433.137 384.378 433.578 383.233 432.954 382.181C432.505 381.424 431.788 381.214 431.036 381.455C431.463 380.921 431.606 380.308 431.223 379.663C430.722 378.818 429.622 378.544 428.435 379.248C427.215 379.972 426.923 381.168 427.453 382.19L428.394 381.632C428.117 381.02 428.29 380.422 428.896 380.063C429.486 379.713 429.984 379.881 430.258 380.343C430.575 380.877 430.46 381.355 429.806 381.742L429.4 381.984L429.849 382.741L430.287 382.481C430.981 382.069 431.5 382.182 431.868 382.803C432.204 383.369 432.074 383.931 431.333 384.371C430.568 384.825 429.968 384.577 429.558 384.012L428.593 384.584C429.289 385.648 430.474 385.957 431.829 385.154ZM434.775 384.894L435.588 384.412L433.627 375.619L432.806 376.106L434.775 384.894ZM438.85 380.882L439.919 380.248L436.538 374.549L435.59 375.112L434.825 376.837L435.378 377.77L436.094 376.235L438.85 380.882ZM443.099 377.328C442.246 377.834 441.364 377.473 440.598 376.182L440.428 375.895C439.676 374.628 439.74 373.663 440.601 373.153C441.454 372.647 442.351 373.106 443.07 374.318L443.235 374.596C444.001 375.888 443.975 376.808 443.099 377.328ZM443.576 378.187C445.066 377.303 445.311 375.681 444.295 373.968L444.125 373.681C443.109 371.967 441.544 371.473 440.101 372.329C438.667 373.179 438.339 374.807 439.365 376.536L439.535 376.823C440.551 378.537 442.125 379.047 443.576 378.187ZM448.687 374.013C447.835 374.519 446.953 374.158 446.187 372.867L446.017 372.58C445.265 371.313 445.329 370.349 446.19 369.838C447.042 369.332 447.94 369.791 448.658 371.003L448.824 371.282C449.589 372.573 449.564 373.493 448.687 374.013ZM449.165 374.872C450.655 373.988 450.9 372.367 449.884 370.653L449.714 370.366C448.697 368.653 447.133 368.158 445.69 369.014C444.255 369.865 443.928 371.492 444.953 373.222L445.124 373.509C446.14 375.222 447.714 375.733 449.165 374.872Z" fill="white"/>
<path d="M503.475 343.189C504.735 342.442 505.113 341.173 504.527 340.184C503.851 339.044 502.93 339.073 501.483 339.684C500.409 340.127 500.081 340.009 499.807 339.547C499.547 339.108 499.697 338.599 500.343 338.216C500.996 337.828 501.49 337.88 501.948 338.417L502.921 337.84C502.162 336.814 501.097 336.691 499.87 337.419C498.682 338.123 498.301 339.298 498.854 340.23C499.488 341.298 500.379 341.33 501.851 340.705C502.865 340.308 503.247 340.351 503.559 340.877C503.871 341.403 503.632 342.018 503.003 342.392C502.038 342.964 501.523 342.623 501.111 342.091L500.091 342.697C500.809 343.725 501.921 344.111 503.475 343.189ZM506.495 341.29L507.459 340.718L504.987 336.55L504.022 337.122L506.495 341.29ZM504.086 336.157C504.405 335.968 504.518 335.578 504.334 335.267C504.145 334.948 503.748 334.86 503.429 335.05C503.11 335.239 502.997 335.629 503.186 335.948C503.37 336.259 503.767 336.347 504.086 336.157ZM508.659 340.007L509.623 339.435L506.007 333.338L505.042 333.91L508.659 340.007ZM511.89 338.09L513.014 337.424L512.048 332.362L511.1 332.924L511.91 336.742L508.932 334.21L507.896 334.824L511.89 338.09ZM516.96 335.191C518.028 334.558 518.454 333.659 518.069 332.702L517.137 333.255C517.306 333.704 517.14 334.114 516.558 334.46C515.841 334.885 515.178 334.675 514.678 333.905L517.731 332.094L517.565 331.815C516.681 330.325 515.385 330.264 514.348 330.879C513.161 331.583 512.787 332.969 513.553 334.26L513.59 334.324C514.37 335.639 515.733 335.919 516.96 335.191ZM514.311 333.25C514.024 332.547 514.183 331.925 514.764 331.58C515.362 331.226 515.918 331.327 516.391 332.016L514.311 333.25ZM519.703 333.456L520.667 332.884L519.382 330.716C518.857 329.832 519.206 329.258 520.046 328.749L519.512 327.848C518.816 328.272 518.609 328.815 518.658 329.497L518.195 328.716L517.231 329.288L519.703 333.456Z" fill="white"/>
<g clip-path="url(#clip0_344_743)">
<path d="M488.418 343.048C488.018 342.918 487.588 343.173 487.51 343.586L486.57 348.609C486.507 348.944 486.697 349.264 487.022 349.371L491.882 350.953C492.282 351.083 492.712 350.829 492.789 350.415L493.73 345.393C493.793 345.057 493.603 344.737 493.278 344.63L488.418 343.048Z" fill="white"/>
</g>
<mask id="mask0_344_743" style="mask-type:alpha" maskUnits="userSpaceOnUse" x="179" y="162" width="372" height="329">
<path d="M179.999 320.111L255.998 450.611L275.998 482.111C278.398 492.511 288.998 490.445 293.998 488.111L550.998 334.611L445.998 162.111L379.498 201.111L179.999 320.111Z" fill="#C4C4C4"/>
</mask>
<g mask="url(#mask0_344_743)">
<g filter="url(#filter1_d_344_743)">
<path d="M40.9561 97.4883L362.963 160.415L325.572 351.753C324.407 357.715 318.629 361.604 312.667 360.439L1.45524 299.622L40.9561 97.4883Z" fill="white"/>
</g>
</g>
</g>
<rect x="41.8252" y="96.2598" width="327.762" height="207.117" rx="11.0463" transform="rotate(11.1371 41.8252 96.2598)" fill="#0096FA"/>
<g filter="url(#filter2_i_344_743)">
<path d="M39.7714 106.691C40.9529 100.69 46.7867 96.7909 52.7838 97.9948L166.223 120.767L126.162 324.266L12.6414 301.477C6.67586 300.279 2.80207 294.483 3.97734 288.513L39.7714 106.691Z" fill="white"/>
</g>
<path opacity="0.3" d="M30.3723 272.173C30.579 271.788 31.0125 271.583 31.4412 271.667L109.622 286.985C110.063 287.072 110.391 287.441 110.424 287.889L111.387 300.85C111.436 301.506 110.847 302.028 110.202 301.901L24.8535 285.179C24.1956 285.05 23.8504 284.321 24.1675 283.73L30.3723 272.173Z" fill="#0096FA"/>
<path opacity="0.6" d="M41.54 259.618C41.7323 259.201 42.185 258.97 42.6357 259.058L103.913 271.064C104.373 271.155 104.708 271.553 104.717 272.022L104.968 284.844C104.98 285.479 104.403 285.963 103.78 285.841L36.849 272.727C36.2158 272.603 35.8659 271.918 36.1363 271.332L41.54 259.618Z" fill="#0096FA"/>
<path d="M53.156 247.158C53.3294 246.706 53.8024 246.444 54.2772 246.537L97.7525 255.056C98.2343 255.15 98.5754 255.581 98.5561 256.072L98.0574 268.747C98.0334 269.358 97.4704 269.803 96.8709 269.685L49.3338 260.371C48.7267 260.252 48.3739 259.614 48.5956 259.037L53.156 247.158Z" fill="#0096FA"/>
<rect x="63.3906" y="231.67" width="32.3653" height="16.3418" rx="0.995855" transform="rotate(11.0857 63.3906 231.67)" fill="#66C0FC"/>
<rect x="65.0205" y="223.354" width="32.3653" height="4.84202" rx="0.995855" transform="rotate(11.0857 65.0205 223.354)" fill="#66C0FC"/>
<rect x="62.1348" y="227.724" width="35.8508" height="3.63152" rx="0.995855" transform="rotate(11.0857 62.1348 227.724)" fill="#0096FA"/>
<rect x="63.7637" y="219.408" width="35.8508" height="3.63152" rx="0.995855" transform="rotate(11.0857 63.7637 219.408)" fill="#0096FA"/>
<path d="M73.7626 240.884C73.8684 240.345 74.3916 239.993 74.9314 240.099L81.7729 241.439C82.3127 241.545 82.6645 242.068 82.5587 242.608L80.7717 251.729L71.9756 250.005L73.7626 240.884Z" fill="#0096FA"/>
<mask id="path-54-inside-2_344_743" fill="white">
<path fill-rule="evenodd" clip-rule="evenodd" d="M79.3339 129.488C79.0198 130.244 78.4887 130.889 77.8077 131.343L76.6363 129.585C77.1673 129.288 77.5694 128.768 77.6962 128.124C77.9253 126.96 77.1674 125.831 76.0034 125.602C74.8393 125.373 73.7099 126.13 73.4808 127.295C73.3585 127.915 73.5171 128.526 73.8683 128.996L72.0707 130.194C71.617 129.513 71.3753 128.713 71.3764 127.895C71.3774 127.076 71.6211 126.277 72.0765 125.597C72.532 124.917 73.1788 124.388 73.9352 124.076C74.6915 123.763 75.5235 123.683 76.3258 123.843C77.1282 124.004 77.8649 124.399 78.4427 124.978C79.0206 125.558 79.4137 126.295 79.5723 127.098C79.7309 127.901 79.6479 128.732 79.3339 129.488Z"/>
</mask>
<path fill-rule="evenodd" clip-rule="evenodd" d="M79.3339 129.488C79.0198 130.244 78.4887 130.889 77.8077 131.343L76.6363 129.585C77.1673 129.288 77.5694 128.768 77.6962 128.124C77.9253 126.96 77.1674 125.831 76.0034 125.602C74.8393 125.373 73.7099 126.13 73.4808 127.295C73.3585 127.915 73.5171 128.526 73.8683 128.996L72.0707 130.194C71.617 129.513 71.3753 128.713 71.3764 127.895C71.3774 127.076 71.6211 126.277 72.0765 125.597C72.532 124.917 73.1788 124.388 73.9352 124.076C74.6915 123.763 75.5235 123.683 76.3258 123.843C77.1282 124.004 77.8649 124.399 78.4427 124.978C79.0206 125.558 79.4137 126.295 79.5723 127.098C79.7309 127.901 79.6479 128.732 79.3339 129.488Z" fill="#0096FA"/>
<path d="M77.8077 131.343L76.2187 132.402L77.2776 133.991L78.8666 132.932L77.8077 131.343ZM79.3339 129.488L77.5707 128.755L77.5707 128.755L79.3339 129.488ZM76.6363 129.585L75.7041 127.918L73.9027 128.926L75.0473 130.644L76.6363 129.585ZM73.8683 128.996L74.9272 130.585L76.6047 129.467L75.3977 127.853L73.8683 128.996ZM72.0707 130.194L70.4817 131.253L71.5406 132.842L73.1296 131.783L72.0707 130.194ZM71.3764 127.895L73.2859 127.897L71.3764 127.895ZM72.0765 125.597L70.4902 124.534L70.4902 124.534L72.0765 125.597ZM73.9352 124.076L73.2067 122.311L73.2067 122.311L73.9352 124.076ZM76.3258 123.843L75.951 125.716L76.3258 123.843ZM78.4427 124.978L77.0908 126.327L77.0908 126.327L78.4427 124.978ZM78.8666 132.932C79.8618 132.269 80.638 131.325 81.0971 130.221L77.5707 128.755C77.4015 129.162 77.1156 129.509 76.7489 129.754L78.8666 132.932ZM75.0473 130.644L76.2187 132.402L79.3968 130.284L78.2253 128.526L75.0473 130.644ZM75.8226 127.756C75.8087 127.827 75.7671 127.883 75.7041 127.918L77.5685 131.251C78.5676 130.692 79.3302 129.71 79.5697 128.493L75.8226 127.756ZM75.6346 127.475C75.7639 127.501 75.8481 127.626 75.8226 127.756L79.5697 128.493C80.0025 126.294 78.571 124.161 76.3722 123.728L75.6346 127.475ZM75.3543 127.663C75.3797 127.534 75.5052 127.45 75.6346 127.475L76.3722 123.728C74.1734 123.295 72.0401 124.727 71.6072 126.926L75.3543 127.663ZM75.3977 127.853C75.3563 127.798 75.3407 127.732 75.3543 127.663L71.6072 126.926C71.3763 128.099 71.6779 129.255 72.339 130.14L75.3977 127.853ZM73.1296 131.783L74.9272 130.585L72.8095 127.407L71.0119 128.605L73.1296 131.783ZM69.4669 127.892C69.4654 129.088 69.8185 130.258 70.4817 131.253L73.6597 129.135C73.4154 128.769 73.2853 128.338 73.2859 127.897L69.4669 127.892ZM70.4902 124.534C69.8245 125.528 69.4684 126.696 69.4669 127.892L73.2859 127.897C73.2864 127.457 73.4176 127.026 73.6629 126.66L70.4902 124.534ZM73.2067 122.311C72.1012 122.767 71.1559 123.541 70.4902 124.534L73.6629 126.66C73.9081 126.294 74.2564 126.009 74.6637 125.841L73.2067 122.311ZM76.7007 121.971C75.5281 121.736 74.3121 121.854 73.2067 122.311L74.6637 125.841C75.0709 125.673 75.5189 125.629 75.951 125.716L76.7007 121.971ZM79.7946 123.63C78.9501 122.783 77.8734 122.206 76.7007 121.971L75.951 125.716C76.383 125.802 76.7797 126.015 77.0908 126.327L79.7946 123.63ZM81.4456 126.728C81.2137 125.555 80.6392 124.476 79.7946 123.63L77.0908 126.327C77.402 126.639 77.6136 127.036 77.6991 127.468L81.4456 126.728ZM81.0971 130.221C81.5561 129.117 81.6774 127.901 81.4456 126.728L77.6991 127.468C77.7845 127.9 77.7398 128.348 77.5707 128.755L81.0971 130.221Z" fill="#0096FA" mask="url(#path-54-inside-2_344_743)"/>
<path fill-rule="evenodd" clip-rule="evenodd" d="M72.5703 121.936C72.4813 121.984 72.3934 122.033 72.3068 122.085L71.2427 120.499C71.6366 120.256 72.0524 120.045 72.4859 119.87C73.9815 119.268 75.622 119.123 77.2 119.453C78.7781 119.783 80.2227 120.574 81.3514 121.725C81.6647 122.045 81.9498 122.389 82.2046 122.752L80.6543 123.792C79.7492 122.55 78.3921 121.633 76.7656 121.313L76.7424 121.309C75.5545 121.074 74.3233 121.189 73.1991 121.642C72.9834 121.728 72.7736 121.827 72.5703 121.936ZM81.2667 124.824C81.8229 126.003 82.021 127.364 81.7499 128.741C81.4091 130.472 80.3922 131.898 79.0275 132.799L79.9916 134.254C80.0184 134.237 80.045 134.219 80.0715 134.201C80.5811 133.859 81.048 133.463 81.4647 133.02C82.1202 132.324 82.6515 131.515 83.0301 130.626C83.6618 129.143 83.8395 127.505 83.5407 125.921C83.3998 125.174 83.156 124.455 82.8194 123.783L81.2667 124.824ZM70.2719 121.203L71.339 122.794C70.3416 123.68 69.6154 124.887 69.3378 126.297C69.0084 127.971 69.3717 129.62 70.2287 130.948L68.708 131.893C68.6394 131.788 68.5733 131.682 68.5097 131.574C68.2466 131.128 68.0275 130.66 67.8545 130.175C67.5323 129.274 67.3697 128.318 67.3793 127.351C67.3953 125.739 67.889 124.168 68.798 122.836C69.2155 122.224 69.7121 121.676 70.2719 121.203Z" fill="#0096FA"/>
<path fill-rule="evenodd" clip-rule="evenodd" d="M70.4017 134.516C71.573 133.893 72.9336 133.656 74.2947 133.923C75.6387 134.188 76.7956 134.908 77.6404 135.91L77.7064 135.922L79.2637 134.877C78.1465 133.459 76.5582 132.423 74.6635 132.05C72.7679 131.677 70.9045 132.034 69.3328 132.923L70.4017 134.516Z" fill="#0096FA"/>
<path d="M181.185 156.033C182.901 156.37 184.015 155.778 184.282 154.421C184.562 153 183.703 152.432 182.176 151.879C181.149 151.49 180.866 151.235 180.962 150.749C181.055 150.275 181.515 150.033 182.181 150.164C182.898 150.305 183.188 150.655 183.195 151.295L184.629 151.577C184.76 150.034 183.773 149.307 182.403 149.037C181.148 148.79 179.762 149.209 179.498 150.554C179.251 151.808 179.805 152.436 181.517 153.066C182.47 153.426 182.878 153.719 182.769 154.27C182.658 154.833 182.229 155.054 181.397 154.891C180.488 154.712 180.22 154.247 180.277 153.553L178.818 153.266C178.602 154.699 179.457 155.692 181.185 156.033ZM186.974 157.172C187.999 157.374 188.661 157.119 189.209 156.628L189.048 157.448L190.572 157.747L191.436 153.356C191.797 151.525 190.74 150.679 189.242 150.384C187.744 150.089 186.373 150.497 185.938 152.034L187.436 152.329C187.644 151.678 188.116 151.372 188.923 151.531C189.832 151.71 190.051 152.219 189.874 153.115L189.806 153.461L188.974 153.297C187.054 152.919 185.432 153.185 185.124 154.747C184.85 156.142 185.745 156.93 186.974 157.172ZM187.565 156.132C186.797 155.98 186.562 155.548 186.673 154.985C186.835 154.166 187.643 154.046 188.821 154.277L189.615 154.434L189.484 155.1C189.315 155.957 188.512 156.318 187.565 156.132ZM194.603 158.661C195.077 158.754 195.425 158.743 195.686 158.701L195.928 157.472C195.693 157.519 195.455 157.512 195.148 157.451C194.661 157.356 194.432 157.031 194.548 156.442L195.241 152.921L196.714 153.211L196.943 152.046L195.471 151.756L195.761 150.284L194.211 149.979L193.921 151.451L193.025 151.275L192.796 152.44L193.692 152.616L192.971 156.278C192.722 157.546 193.272 158.399 194.603 158.661ZM200.281 158.542C199.103 158.31 198.593 157.318 198.863 155.949L198.883 155.846C199.156 154.463 200.024 153.77 201.176 153.997C202.328 154.223 202.853 155.205 202.581 156.587L202.563 156.677C202.294 158.047 201.433 158.769 200.281 158.542ZM200.031 159.743C202.003 160.131 203.743 159.064 204.153 156.977L204.174 156.874C204.577 154.826 203.374 153.166 201.415 152.78C199.444 152.392 197.699 153.485 197.291 155.559L197.271 155.662C196.87 157.697 198.06 159.355 200.031 159.743ZM207.167 161.148C208.883 161.485 209.997 160.893 210.264 159.536C210.544 158.115 209.685 157.547 208.158 156.994C207.13 156.605 206.848 156.35 206.944 155.864C207.037 155.39 207.497 155.148 208.163 155.279C208.88 155.42 209.17 155.77 209.177 156.41L210.611 156.692C210.742 155.148 209.754 154.422 208.384 154.152C207.13 153.905 205.744 154.324 205.479 155.668C205.232 156.923 205.787 157.551 207.498 158.18C208.451 158.541 208.859 158.834 208.751 159.385C208.64 159.948 208.211 160.169 207.378 160.006C206.469 159.827 206.202 159.362 206.259 158.668L204.799 158.381C204.583 159.814 205.439 160.807 207.167 161.148ZM211.227 161.814L212.776 162.119L213.552 158.175C213.762 157.113 214.572 156.714 215.442 156.885C216.364 157.066 216.683 157.608 216.484 158.619L215.683 162.691L217.232 162.996L218.061 158.784C218.424 156.94 217.63 155.972 216.286 155.708C215.185 155.491 214.334 155.895 213.885 156.485L214.704 152.324L213.155 152.019L211.227 161.814ZM219.055 163.355L220.604 163.66L221.922 156.964L220.373 156.659L219.055 163.355ZM221.345 155.706C221.857 155.807 222.343 155.504 222.441 155.004C222.542 154.492 222.208 154.028 221.696 153.927C221.183 153.826 220.698 154.129 220.597 154.641C220.499 155.141 220.833 155.606 221.345 155.706ZM223.397 164.303C223.973 164.416 224.506 164.069 224.617 163.506C224.728 162.942 224.368 162.406 223.792 162.293C223.229 162.182 222.693 162.542 222.582 163.105C222.471 163.668 222.833 164.192 223.397 164.303ZM226.676 164.855L228.263 165.168L230.508 160.928L230.862 165.679L232.437 165.989L235.855 159.707L234.344 159.409L231.996 163.974L231.643 158.877L230.35 158.623L227.976 163.183L227.597 158.081L225.945 157.756L226.676 164.855ZM237.936 167.205C239.024 167.419 239.832 167.033 240.293 166.445L240.087 167.495L241.636 167.8L242.954 161.104L241.405 160.799L240.621 164.781C240.412 165.844 239.576 166.238 238.744 166.074C237.848 165.897 237.516 165.353 237.715 164.342L238.524 160.232L236.975 159.927L236.131 164.216C235.78 165.996 236.617 166.945 237.936 167.205ZM243.473 168.162L245.022 168.467L245.798 164.523C246.007 163.461 246.817 163.062 247.688 163.233C248.61 163.414 248.929 163.956 248.73 164.968L247.928 169.039L249.477 169.344L250.307 165.132C250.67 163.288 249.876 162.32 248.532 162.056C247.43 161.839 246.579 162.243 246.131 162.833L246.34 161.771L244.791 161.466L243.473 168.162ZM253.746 170.317C254.732 170.511 255.706 170.091 256.196 169.496L255.974 170.623L257.523 170.928L259.451 161.133L257.902 160.828L257.09 164.951C256.85 164.212 256.27 163.579 255.182 163.365C253.44 163.022 251.906 164.13 251.485 166.268L251.464 166.37C251.036 168.547 252.069 169.987 253.746 170.317ZM254.372 169.164C253.374 168.967 252.77 168.117 253.06 166.644L253.08 166.542C253.365 165.095 254.187 164.433 255.326 164.657C256.453 164.879 256.988 165.742 256.698 167.214L256.678 167.317C256.383 168.815 255.448 169.376 254.372 169.164ZM262.284 171.998C263.999 172.336 265.29 171.792 265.785 170.426L264.287 170.131C264.043 170.762 263.484 171.037 262.549 170.853C261.397 170.626 260.898 169.783 261.096 168.506L266 169.471L266.088 169.023C266.559 166.629 265.255 165.348 263.591 165.02C261.683 164.645 259.99 165.748 259.581 167.822L259.561 167.924C259.145 170.037 260.312 171.61 262.284 171.998ZM261.326 167.474C261.684 166.467 262.434 165.963 263.369 166.147C264.329 166.336 264.817 166.964 264.667 168.132L261.326 167.474ZM266.791 172.752L268.34 173.057L269.026 169.575C269.306 168.154 270.211 167.88 271.57 168.134L271.855 166.687C270.726 166.478 270 166.854 269.411 167.616L269.658 166.361L268.109 166.056L266.791 172.752ZM271.429 176.046L272.978 176.351L273.636 173.009C273.866 173.733 274.53 174.409 275.593 174.618C277.322 174.958 278.821 173.897 279.244 171.746L279.264 171.644C279.69 169.48 278.642 167.983 276.964 167.653C275.978 167.459 275.033 167.871 274.536 168.439L274.747 167.363L273.198 167.058L271.429 176.046ZM275.451 173.313C274.324 173.092 273.733 172.244 274.028 170.746L274.048 170.643C274.341 169.158 275.252 168.58 276.328 168.791C277.339 168.991 277.964 169.872 277.672 171.357L277.651 171.459C277.369 172.893 276.591 173.538 275.451 173.313ZM281.711 175.822C282.735 176.024 283.397 175.769 283.946 175.278L283.784 176.098L285.308 176.398L286.173 172.006C286.533 170.175 285.476 169.329 283.978 169.034C282.48 168.739 281.11 169.148 280.674 170.684L282.172 170.979C282.38 170.329 282.853 170.023 283.659 170.181C284.568 170.36 284.787 170.869 284.611 171.765L284.543 172.111L283.71 171.947C281.79 171.569 280.168 171.835 279.861 173.397C279.586 174.792 280.482 175.581 281.711 175.822ZM282.301 174.782C281.533 174.63 281.299 174.199 281.41 173.635C281.571 172.816 282.379 172.696 283.557 172.928L284.351 173.084L284.22 173.75C284.051 174.608 283.249 174.968 282.301 174.782ZM289.35 177.326C291.066 177.664 292.18 177.072 292.447 175.715C292.727 174.294 291.868 173.726 290.341 173.173C289.314 172.784 289.031 172.529 289.127 172.043C289.22 171.569 289.68 171.327 290.346 171.458C291.063 171.599 291.353 171.949 291.36 172.589L292.794 172.871C292.925 171.327 291.938 170.601 290.568 170.331C289.313 170.084 287.927 170.503 287.663 171.847C287.416 173.102 287.97 173.73 289.682 174.359C290.635 174.72 291.043 175.013 290.934 175.564C290.823 176.127 290.394 176.348 289.562 176.184C288.653 176.005 288.385 175.541 288.442 174.847L286.982 174.559C286.767 175.993 287.622 176.986 289.35 177.326ZM295.677 178.572C297.392 178.91 298.506 178.318 298.774 176.961C299.053 175.539 298.194 174.971 296.667 174.418C295.64 174.03 295.358 173.775 295.454 173.288C295.547 172.814 296.007 172.572 296.673 172.703C297.39 172.845 297.68 173.194 297.687 173.834L299.121 174.116C299.252 172.573 298.264 171.846 296.894 171.577C295.64 171.33 294.254 171.748 293.989 173.093C293.742 174.348 294.297 174.975 296.008 175.605C296.961 175.965 297.369 176.258 297.261 176.809C297.15 177.372 296.721 177.594 295.888 177.43C294.979 177.251 294.712 176.786 294.769 176.092L293.309 175.805C293.093 177.239 293.948 178.232 295.677 178.572Z" fill="white"/>
<path d="M95.2397 136.17L96.8657 136.491L100.035 130.186L100.527 137.211L102.23 137.547L106.324 128.843L104.737 128.531L101.767 134.968L101.28 127.85L99.8714 127.573L96.7685 133.945L96.5041 126.91L94.7629 126.567L95.2397 136.17ZM105.906 138.27L107.609 138.605L108.294 135.123L109.575 135.375C111.533 135.761 113.098 135.178 113.478 133.244L113.489 133.193C113.867 131.273 112.701 130.099 110.653 129.696L107.708 129.116L105.906 138.27ZM108.536 133.894L109.151 130.77L110.393 131.014C111.481 131.229 112.038 131.777 111.824 132.865L111.814 132.917C111.615 133.928 110.905 134.36 109.778 134.138L108.536 133.894ZM116.81 140.417L118.525 140.755L120.328 131.6L118.612 131.263L116.81 140.417ZM122.652 140.171L123.925 133.705L124.911 133.899C127.062 134.322 127.723 135.69 127.335 137.661L127.315 137.764C126.917 139.787 125.699 140.77 123.651 140.367L122.652 140.171ZM120.685 141.18L123.437 141.722C126.651 142.354 128.573 140.764 129.097 138.101L129.12 137.986C129.644 135.323 128.453 133.2 125.265 132.572L122.487 132.025L120.685 141.18Z" fill="#0096FA"/>
<path d="M175.15 173.373L177.696 173.874C179.15 174.16 180.087 173.7 180.329 172.469L180.336 172.432C180.51 171.553 180.18 170.978 179.321 170.607C180.116 170.523 180.514 170.063 180.644 169.406L180.651 169.369C180.888 168.165 180.185 167.488 178.824 167.22L176.454 166.753L175.15 173.373ZM176.527 172.73L176.944 170.61L178.055 170.829C178.963 171.008 179.275 171.425 179.14 172.11L179.133 172.147C178.998 172.832 178.545 173.128 177.721 172.965L176.527 172.73ZM177.109 169.777L177.484 167.87L178.484 168.067C179.271 168.222 179.579 168.561 179.455 169.191L179.448 169.228C179.315 169.904 178.942 170.138 178.127 169.978L177.109 169.777ZM183.136 175.041C184.377 175.285 185.31 174.892 185.668 173.905L184.585 173.691C184.408 174.147 184.004 174.346 183.328 174.213C182.495 174.049 182.134 173.44 182.277 172.516L185.823 173.214L185.887 172.89C186.228 171.159 185.285 170.233 184.081 169.996C182.702 169.724 181.477 170.522 181.182 172.021L181.167 172.096C180.867 173.623 181.71 174.76 183.136 175.041ZM182.443 171.77C182.702 171.042 183.245 170.677 183.921 170.81C184.615 170.947 184.968 171.401 184.86 172.245L182.443 171.77ZM186.395 175.587L187.515 175.807L188.011 173.289C188.213 172.261 188.868 172.063 189.851 172.247L190.057 171.201C189.241 171.05 188.716 171.322 188.29 171.872L188.469 170.965L187.348 170.745L186.395 175.587ZM190.103 176.316L191.223 176.537L192.617 169.455L191.497 169.234L190.103 176.316ZM192.616 176.811L193.736 177.032L194.689 172.19L193.569 171.969L192.616 176.811ZM194.272 171.281C194.642 171.354 194.993 171.134 195.065 170.773C195.137 170.403 194.896 170.067 194.526 169.994C194.155 169.921 193.804 170.14 193.731 170.511C193.66 170.872 193.902 171.208 194.272 171.281ZM195.102 177.301L196.222 177.521L196.783 174.67C196.934 173.901 197.52 173.613 198.15 173.737C198.816 173.868 199.047 174.259 198.903 174.991L198.323 177.935L199.444 178.155L200.043 175.109C200.306 173.776 199.732 173.077 198.76 172.885C197.963 172.729 197.348 173.021 197.024 173.448L197.175 172.679L196.055 172.459L195.102 177.301ZM200.797 179.605L202.418 177.77L201.437 177.134L200.163 179.162L200.797 179.605ZM207.159 178.664L208.079 173.989L208.792 174.129C210.347 174.436 210.826 175.424 210.545 176.85L210.53 176.924C210.243 178.387 209.362 179.098 207.881 178.807L207.159 178.664ZM205.736 179.394L207.726 179.786C210.05 180.243 211.44 179.094 211.819 177.168L211.836 177.085C212.215 175.159 211.353 173.624 209.048 173.17L207.039 172.775L205.736 179.394ZM212.345 180.695L216.641 181.541L216.832 180.569L213.768 179.965L214.148 178.031L216.481 178.49L216.664 177.564L214.331 177.105L214.688 175.29L217.595 175.862L217.786 174.89L213.648 174.076L212.345 180.695Z" fill="white"/>
<path d="M147.97 308.767L152.266 309.613L152.457 308.641L149.393 308.038L149.774 306.103L152.107 306.562L152.289 305.636L149.956 305.177L150.313 303.362L153.22 303.935L153.412 302.963L149.273 302.148L147.97 308.767ZM155.08 310.263C155.793 310.404 156.497 310.1 156.851 309.669L156.691 310.484L157.811 310.705L159.205 303.622L158.085 303.402L157.498 306.383C157.325 305.849 156.905 305.391 156.118 305.236C154.859 304.988 153.749 305.789 153.445 307.335L153.43 307.409C153.121 308.983 153.868 310.024 155.08 310.263ZM155.533 309.429C154.811 309.287 154.374 308.672 154.584 307.607L154.598 307.533C154.804 306.487 155.399 306.008 156.223 306.17C157.037 306.331 157.424 306.955 157.215 308.02L157.2 308.094C156.987 309.177 156.311 309.582 155.533 309.429ZM159.17 310.972L160.291 311.193L161.244 306.351L160.124 306.13L159.17 310.972ZM160.827 305.442C161.197 305.515 161.548 305.295 161.619 304.934C161.692 304.564 161.45 304.228 161.08 304.155C160.71 304.082 160.359 304.301 160.286 304.672C160.215 305.033 160.456 305.369 160.827 305.442ZM163.287 311.869C163.63 311.937 163.882 311.929 164.07 311.898L164.245 311.01C164.075 311.043 163.903 311.038 163.681 310.995C163.329 310.925 163.164 310.691 163.247 310.265L163.749 307.719L164.813 307.929L164.979 307.086L163.915 306.877L164.124 305.812L163.004 305.591L162.794 306.656L162.146 306.529L161.98 307.371L162.628 307.499L162.107 310.146C161.927 311.063 162.325 311.68 163.287 311.869ZM165.101 312.14L166.221 312.36L167.175 307.518L166.054 307.298L165.101 312.14ZM166.757 306.609C167.128 306.682 167.479 306.463 167.55 306.102C167.623 305.731 167.381 305.395 167.011 305.322C166.64 305.249 166.289 305.469 166.217 305.839C166.145 306.2 166.387 306.536 166.757 306.609ZM169.906 312.278C169.055 312.11 168.686 311.393 168.881 310.403L168.896 310.329C169.092 309.329 169.72 308.827 170.553 308.991C171.386 309.155 171.766 309.865 171.569 310.865L171.557 310.929C171.362 311.92 170.739 312.442 169.906 312.278ZM169.726 313.146C171.151 313.427 172.409 312.655 172.706 311.146L172.721 311.072C173.013 309.591 172.143 308.391 170.726 308.112C169.301 307.831 168.039 308.621 167.744 310.121L167.729 310.195C167.44 311.667 168.3 312.866 169.726 313.146ZM173.246 313.743L174.367 313.964L174.928 311.112C175.079 310.344 175.665 310.055 176.295 310.179C176.961 310.311 177.192 310.702 177.048 311.434L176.468 314.378L177.588 314.598L178.188 311.552C178.45 310.219 177.877 309.519 176.904 309.328C176.108 309.171 175.493 309.464 175.169 309.89L175.32 309.122L174.2 308.901L173.246 313.743ZM183.983 315.857L185.177 316.092L185.441 314.75L186.33 314.925L186.51 314.008L185.622 313.833L186.48 309.473L184.934 309.168L181.055 313.434L180.97 313.869L184.247 314.514L183.983 315.857ZM182.465 313.212L185.12 310.176L184.446 313.602L182.465 313.212ZM186.488 316.35L191.274 317.292L191.462 316.339L188.648 315.785L190.402 314.64C191.339 314.035 191.995 313.386 192.165 312.525C192.395 311.358 191.735 310.411 190.365 310.141C188.967 309.866 187.932 310.528 187.565 311.956L188.694 312.178C188.989 311.265 189.481 310.967 190.138 311.097C190.777 311.222 191.052 311.68 190.93 312.301C190.806 312.93 190.312 313.439 189.551 313.981L186.532 316.128L186.488 316.35ZM191.467 318.753L192.411 318.939L196.891 310.935L195.937 310.748L191.467 318.753ZM197.283 318.475L198.524 318.719L199.827 312.1L198.725 311.883L196.973 312.673L196.76 313.756L198.346 313.078L197.283 318.475ZM202.92 318.662C201.929 318.467 201.505 317.595 201.8 316.095L201.866 315.761C202.155 314.289 202.858 313.601 203.858 313.798C204.849 313.993 205.218 314.95 204.941 316.357L204.877 316.681C204.582 318.181 203.938 318.862 202.92 318.662ZM202.699 319.638C204.43 319.978 205.717 318.914 206.109 316.924L206.174 316.59C206.566 314.6 205.714 313.163 204.039 312.833C202.372 312.505 201.019 313.518 200.623 315.527L200.558 315.86C200.166 317.85 201.014 319.306 202.699 319.638ZM209.411 319.94C208.421 319.745 207.996 318.872 208.291 317.373L208.357 317.039C208.647 315.567 209.35 314.879 210.35 315.076C211.34 315.271 211.709 316.228 211.432 317.635L211.369 317.959C211.073 319.459 210.43 320.14 209.411 319.94ZM209.19 320.915C210.922 321.256 212.208 320.192 212.6 318.202L212.666 317.868C213.057 315.878 212.206 314.441 210.53 314.111C208.863 313.783 207.51 314.795 207.115 316.804L207.049 317.138C206.657 319.128 207.505 320.584 209.19 320.915Z" fill="white"/>
<path d="M270.852 332.421L271.772 327.745L272.485 327.886C274.04 328.192 274.519 329.18 274.238 330.606L274.224 330.68C273.936 332.143 273.055 332.854 271.574 332.563L270.852 332.421ZM269.429 333.15L271.42 333.542C273.743 334 275.133 332.85 275.512 330.924L275.529 330.841C275.908 328.915 275.046 327.38 272.741 326.926L270.732 326.531L269.429 333.15ZM275.973 334.439L277.093 334.659L278.047 329.817L276.926 329.597L275.973 334.439ZM277.629 328.908C278 328.981 278.351 328.762 278.422 328.401C278.495 328.03 278.253 327.694 277.883 327.621C277.512 327.548 277.162 327.768 277.089 328.138C277.018 328.499 277.259 328.835 277.629 328.908ZM279.709 335.27C280.45 335.416 280.928 335.231 281.325 334.877L281.208 335.469L282.31 335.686L282.935 332.511C283.196 331.187 282.432 330.575 281.349 330.362C280.265 330.148 279.274 330.444 278.959 331.555L280.043 331.768C280.193 331.298 280.535 331.076 281.118 331.191C281.775 331.321 281.934 331.688 281.806 332.336L281.757 332.586L281.155 332.468C279.766 332.195 278.594 332.387 278.371 333.516C278.173 334.525 278.82 335.095 279.709 335.27ZM280.136 334.518C279.581 334.408 279.411 334.096 279.491 333.689C279.608 333.096 280.193 333.009 281.044 333.177L281.618 333.29L281.523 333.771C281.401 334.392 280.821 334.653 280.136 334.518ZM283.594 335.939L284.714 336.159L285.285 333.262C285.431 332.521 286.013 332.251 286.568 332.36C287.114 332.468 287.369 332.835 287.229 333.548L286.64 336.539L287.76 336.759L288.331 333.861C288.476 333.121 289.059 332.851 289.614 332.96C290.169 333.069 290.415 333.435 290.275 334.148L289.686 337.138L290.806 337.359L291.409 334.294C291.672 332.961 291.057 332.273 290.168 332.098C289.567 331.979 288.847 332.117 288.358 332.645C288.236 331.996 287.789 331.629 287.16 331.505C286.447 331.365 285.842 331.65 285.522 332.058L285.668 331.318L284.547 331.097L283.594 335.939ZM294.412 337.261C293.56 337.093 293.192 336.376 293.387 335.386L293.401 335.312C293.598 334.312 294.226 333.81 295.059 333.974C295.892 334.138 296.272 334.848 296.075 335.848L296.062 335.912C295.867 336.903 295.245 337.425 294.412 337.261ZM294.231 338.129C295.657 338.41 296.915 337.638 297.212 336.129L297.227 336.055C297.518 334.574 296.649 333.374 295.232 333.095C293.806 332.814 292.545 333.604 292.25 335.104L292.235 335.178C291.945 336.65 292.806 337.849 294.231 338.129ZM297.752 338.726L298.872 338.947L299.434 336.095C299.585 335.327 300.171 335.038 300.8 335.162C301.467 335.293 301.698 335.685 301.554 336.416L300.974 339.36L302.094 339.581L302.694 336.535C302.956 335.202 302.382 334.502 301.41 334.311C300.614 334.154 299.999 334.447 299.674 334.873L299.826 334.105L298.705 333.884L297.752 338.726ZM305.181 340.285C305.894 340.425 306.598 340.121 306.952 339.691L306.792 340.506L307.912 340.726L309.306 333.644L308.186 333.423L307.599 336.404C307.425 335.87 307.006 335.412 306.219 335.258C304.96 335.01 303.85 335.811 303.546 337.357L303.531 337.431C303.221 339.005 303.968 340.046 305.181 340.285ZM305.634 339.451C304.912 339.309 304.475 338.694 304.685 337.629L304.699 337.555C304.905 336.509 305.499 336.03 306.323 336.192C307.138 336.352 307.525 336.976 307.315 338.041L307.301 338.115C307.087 339.198 306.411 339.604 305.634 339.451Z" fill="white"/>
<g clip-path="url(#clip1_344_743)">
<path d="M260.293 323.536C260.077 323.166 259.579 323.068 259.239 323.329L255.116 326.502C254.841 326.714 254.767 327.086 254.942 327.388L257.556 331.887C257.771 332.258 258.27 332.356 258.61 332.095L262.733 328.921C263.008 328.71 263.081 328.338 262.907 328.036L260.293 323.536Z" fill="white"/>
</g>
<g opacity="0.07" filter="url(#filter3_f_344_743)">
<path d="M286 491.512H534L264 496.512L286 491.512Z" fill="#020D30"/>
</g>
<defs>
<filter id="filter0_dd_344_743" x="131.599" y="104.996" width="530.544" height="486.055" filterUnits="userSpaceOnUse" color-interpolation-filters="sRGB">
<feFlood flood-opacity="0" result="BackgroundImageFix"/>
<feColorMatrix in="SourceAlpha" type="matrix" values="0 0 0 0 0 0 0 0 0 0 0 0 0 0 0 0 0 0 127 0" result="hardAlpha"/>
<feOffset dx="28.72" dy="22.6"/>
<feGaussianBlur stdDeviation="38.56"/>
<feComposite in2="hardAlpha" operator="out"/>
<feColorMatrix type="matrix" values="0 0 0 0 0 0 0 0 0 0 0 0 0 0 0 0 0 0 0.09 0"/>
<feBlend mode="normal" in2="BackgroundImageFix" result="effect1_dropShadow_344_743"/>
<feColorMatrix in="SourceAlpha" type="matrix" values="0 0 0 0 0 0 0 0 0 0 0 0 0 0 0 0 0 0 127 0" result="hardAlpha"/>
<feOffset dx="0.5" dy="0.5"/>
<feComposite in2="hardAlpha" operator="out"/>
<feColorMatrix type="matrix" values="0 0 0 0 0 0 0 0 0 0 0 0 0 0 0 0 0 0 0.18 0"/>
<feBlend mode="normal" in2="effect1_dropShadow_344_743" result="effect2_dropShadow_344_743"/>
<feBlend mode="normal" in="SourceGraphic" in2="effect2_dropShadow_344_743" result="shape"/>
</filter>
<filter id="filter1_d_344_743" x="-34.9449" y="60.9683" width="515.748" height="417.397" filterUnits="userSpaceOnUse" color-interpolation-filters="sRGB">
<feFlood flood-opacity="0" result="BackgroundImageFix"/>
<feColorMatrix in="SourceAlpha" type="matrix" values="0 0 0 0 0 0 0 0 0 0 0 0 0 0 0 0 0 0 127 0" result="hardAlpha"/>
<feOffset dx="40.72" dy="40.6"/>
<feGaussianBlur stdDeviation="38.56"/>
<feComposite in2="hardAlpha" operator="out"/>
<feColorMatrix type="matrix" values="0 0 0 0 0 0 0 0 0 0 0 0 0 0 0 0 0 0 0.18 0"/>
<feBlend mode="normal" in2="BackgroundImageFix" result="effect1_dropShadow_344_743"/>
<feBlend mode="normal" in="SourceGraphic" in2="effect1_dropShadow_344_743" result="shape"/>
</filter>
<filter id="filter2_i_344_743" x="3.76709" y="97.7764" width="162.456" height="226.49" filterUnits="userSpaceOnUse" color-interpolation-filters="sRGB">
<feFlood flood-opacity="0" result="BackgroundImageFix"/>
<feBlend mode="normal" in="SourceGraphic" in2="BackgroundImageFix" result="shape"/>
<feColorMatrix in="SourceAlpha" type="matrix" values="0 0 0 0 0 0 0 0 0 0 0 0 0 0 0 0 0 0 127 0" result="hardAlpha"/>
<feOffset dy="1"/>
<feComposite in2="hardAlpha" operator="arithmetic" k2="-1" k3="1"/>
<feColorMatrix type="matrix" values="0 0 0 0 0 0 0 0 0 0 0 0 0 0 0 0 0 0 0.07 0"/>
<feBlend mode="normal" in2="shape" result="effect1_innerShadow_344_743"/>
</filter>
<filter id="filter3_f_344_743" x="260" y="487.512" width="278" height="13" filterUnits="userSpaceOnUse" color-interpolation-filters="sRGB">
<feFlood flood-opacity="0" result="BackgroundImageFix"/>
<feBlend mode="normal" in="SourceGraphic" in2="BackgroundImageFix" result="shape"/>
<feGaussianBlur stdDeviation="2" result="effect1_foregroundBlur_344_743"/>
</filter>
<clipPath id="clip0_344_743">
<rect width="11.7528" height="13.4318" fill="white" transform="translate(481.741 340.915) rotate(-30.6726)"/>
</clipPath>
<clipPath id="clip1_344_743">
<rect width="11.9668" height="13.6763" fill="white" transform="translate(256.674 317.386) rotate(11.1371)"/>
</clipPath>
</defs>
</svg>

